<svg width="45" height="55" viewBox="0 0 45 55" fill="none" xmlns="http://www.w3.org/2000/svg">
<path d="M39.0905 14.9608C38.6708 14.5415 37.9908 14.5417 37.5712 14.9612C37.1519 15.3808 37.1521 16.061 37.5717 16.4805C40.0062 18.9136 41.347 22.1497 41.347 25.5925C41.347 29.0352 40.0063 32.2713 37.5717 34.7044C37.1521 35.1238 37.1519 35.804 37.5712 36.2237C37.781 36.4336 38.056 36.5385 38.331 36.5385C38.6059 36.5385 38.8807 36.4337 39.0904 36.2241C41.9308 33.385 43.4953 29.6094 43.4953 25.5925C43.4953 21.5755 41.9311 17.7997 39.0905 14.9608Z" fill="#BCBDBF" stroke="#BCBDBF" stroke-width="1.2"/>
<path d="M35.4035 18.6453C34.9839 18.226 34.3039 18.226 33.8842 18.6453C33.4647 19.0648 33.4647 19.745 33.8842 20.1646C36.8771 23.1574 36.8771 28.0272 33.8842 31.0201C33.4647 31.4396 33.4647 32.1198 33.8842 32.5394C34.094 32.7491 34.3689 32.854 34.6438 32.854C34.9187 32.854 35.1936 32.7491 35.4034 32.5394C39.234 28.7087 39.234 22.4759 35.4035 18.6453Z" fill="#BCBDBF" stroke="#BCBDBF" stroke-width="1.2"/>
<path d="M29.7908 17.5268L23.7771 0.712529C23.6243 0.285098 23.2195 0 22.7656 0H2.8003C2.23461 0 1.76593 0.438604 1.72833 1.00311C1.10733 10.3579 1.5628 15.7661 5.9049 23.0835C6.10363 23.4183 6.86385 24.7743 7.06827 25.1012C9.34852 29.2314 9.01465 30.2114 7.61656 34.3103C7.25841 35.3605 6.81261 36.6675 6.33877 38.2459C5.28443 41.7589 4.88847 45.1568 4.16971 51.3253C4.07915 52.1028 3.98333 52.9257 3.8801 53.7999C3.84422 54.1046 3.94036 54.4101 4.14414 54.6394C4.34792 54.8686 4.64011 55 4.94691 55H21.4076C21.8993 55 22.3281 54.6662 22.4488 54.1896C22.4488 54.1896 28.4223 30.6986 28.6463 29.8951C29.7242 26.0281 30.8388 22.0293 29.8257 17.6467C29.8166 17.606 29.8049 17.5661 29.7908 17.5268ZM8.35057 23.0099C8.1628 22.6834 7.96407 22.3435 7.75244 21.987C6.39033 19.6916 5.43879 17.616 4.79695 15.5314C7.80347 15.5896 9.76918 16.5833 10.2658 18.3395C10.7068 19.8986 9.88638 21.7961 8.35057 23.0099ZM20.5717 52.8516H6.15476C6.20611 52.4123 6.25563 51.9868 6.30386 51.5739C6.63461 48.7345 6.89575 46.4939 7.18322 44.5709H22.6702L20.5717 52.8516ZM23.2145 42.4225H7.54211C7.77951 41.162 8.05172 40.0128 8.39665 38.8636C8.85889 37.3234 9.27923 36.0911 9.65005 35.004C11.1362 30.6465 11.5353 29.0825 9.39406 24.9129C11.7991 23.1862 13.0445 20.2698 12.3332 17.7548C11.942 16.3713 10.3773 13.2796 4.24362 13.3815C4.02856 12.3494 3.87935 11.2964 3.78407 10.1962H9.31941C9.91259 10.1962 10.3936 9.71513 10.3936 9.12194C10.3936 8.52876 9.91259 8.04772 9.31941 8.04772H3.66569C3.61778 6.26173 3.6789 4.32706 3.80888 2.14844H22.009L24.1189 8.04783H18.9657C18.3725 8.04783 17.8915 8.52887 17.8915 9.12205C17.8915 9.71523 18.3725 10.1963 18.9657 10.1963H24.8873L27.7388 18.1693H23.2559C18.5619 18.1693 14.743 21.9896 14.743 26.6854C14.743 31.3795 18.5619 35.1986 23.2559 35.1986H25.0451L23.2145 42.4225ZM26.5769 29.3183C26.3496 30.134 25.5896 33.0502 25.5896 33.0502H23.2559C19.7465 33.0502 16.8915 30.195 16.8915 26.6854C16.8915 23.1742 19.7465 20.3178 23.2559 20.3178H28.0496C28.2391 23.3551 27.4271 26.2684 26.5769 29.3183Z" fill="#BCBDBF" stroke="#BCBDBF" stroke-width="1.2"/>
<path d="M15.2184 9.12207C15.2184 8.52889 14.7359 8.04785 14.1426 8.04785C13.5493 8.04785 13.0684 8.52889 13.0684 9.12207C13.0684 9.71525 13.5494 10.1963 14.1426 10.1963H14.1456C14.7389 10.1963 15.2184 9.71525 15.2184 9.12207Z" fill="#BCBDBF" stroke="#BCBDBF" stroke-width="1.2"/>
</svg>
