<svg xmlns="http://www.w3.org/2000/svg" enable-background="new 0 0 324.885 78.274" viewBox="0 0 324.885 78.274" width="256" height="256"><path d="M324.8848,36.3579H294.127V25.5581h-6.8213V4c0-2.1997-1.7998-4-4-4h-0.7158c-1.916,0-3.526,1.3663-3.9106,3.1717
		C278.2946,1.366,276.6838,0,274.7687,0h-0.7158c-1.8602,0-3.4213,1.2921-3.8632,3.0196C269.7476,1.2921,268.186,0,266.3265,0
		h-0.7158c-2.2002,0-4,1.7998-4,4v32.3579H63.2844V4c0-2.1997-1.7998-4-4-4h-0.7158c-1.8594,0-3.4209,1.2924-3.863,3.0197
		C54.2635,1.2924,52.7026,0,50.8423,0h-0.7158c-1.9211,0-3.5376,1.3743-3.9156,3.1883C45.8329,1.3743,44.217,0,42.2949,0h-0.7158
		c-2.1992,0-4,1.8003-4,4v21.5581h-6.8203v10.7998H0v5.5581h30.7588v10.7998h6.8203v21.558c0,2.2002,1.8008,4,4,4h0.7158
		c1.9221,0,3.538-1.3738,3.9159-3.188c0.3781,1.8142,1.9945,3.188,3.9156,3.188h0.7158c1.8604,0,3.4213-1.292,3.8633-3.0194
		c0.4421,1.7274,2.0037,3.0194,3.863,3.0194h0.7158c2.2002,0,4-1.7998,4-4V41.916h198.3263v32.3578c0,2.1997,1.7998,4,4,4h0.7158
		c1.8595,0,3.421-1.2925,3.8632-3.0198c0.4419,1.7273,2.0029,3.0198,3.8632,3.0198h0.7158c1.9152,0,3.5259-1.3662,3.9105-3.1716
		c0.3845,1.8057,1.9946,3.1716,3.9106,3.1716h0.7158c2.2002,0,4-1.7998,4-4v-21.558h6.8213V41.916h30.7578V36.3579z" fill="#247894" class="color000 svgShape"></path></svg>
