<svg width="253" height="49" viewBox="0 0 253 49" fill="none" xmlns="http://www.w3.org/2000/svg">
<path d="M64.6572 41.0412V9.10456H74.3981L77.075 28.5863L79.7518 9.10456H89.5671V41.0412H83.73V18.0275L80.0493 41.0412H74.3237L70.42 18.0275V41.0412H64.6572Z" fill="white"/>
<path d="M92.0987 41.0412V9.10456H98.2704V41.0412H92.0987Z" fill="white"/>
<path d="M100.819 41.0412V9.10456H107.14V21.8941L110.114 9.10456H116.546L112.977 23.7159L117.29 41.0412H110.672L107.177 25.5748V41.0412H100.819Z" fill="white"/>
<path d="M118.356 41.0412V9.10456H131.146V15.2763H124.862V21.4851H130.885V27.5081H124.862V34.8323H131.554V41.0412H118.356Z" fill="white"/>
<path d="M133.678 9.10456H142.34C144.67 9.10456 146.356 9.67464 147.397 10.8148C148.463 11.9549 148.995 13.8139 148.995 16.3916V17.8044C148.995 20.8531 147.905 22.6748 145.724 23.2697C147.062 23.6167 148.004 24.4223 148.549 25.6863C149.095 26.9504 149.367 28.6235 149.367 30.7055C149.367 34.1011 148.859 36.6789 147.843 38.4387C146.827 40.1737 144.993 41.0412 142.34 41.0412H133.678V9.10456ZM141.225 21.1133C141.77 21.1133 142.142 20.915 142.34 20.5185C142.539 20.0971 142.638 19.5146 142.638 18.7711V15.5737C142.638 14.5327 142.179 14.0122 141.262 14.0122H139.924V21.1133H141.225ZM140.556 35.4272C142.216 35.4272 143.047 34.634 143.047 33.0477V29.0696C143.047 28.103 142.898 27.3718 142.601 26.8761C142.328 26.3803 141.832 26.1325 141.114 26.1325H139.924V35.39L140.556 35.4272Z" fill="white"/>
<path d="M159.09 41.3386C156.512 41.3386 154.554 40.5579 153.216 38.9964C151.877 37.4101 151.208 35.1917 151.208 32.3413V17.1352C151.208 14.384 151.877 12.3143 153.216 10.9263C154.554 9.51353 156.512 8.80713 159.09 8.80713C161.668 8.80713 163.626 9.51353 164.964 10.9263C166.303 12.3143 166.972 14.384 166.972 17.1352V32.3413C166.972 35.2165 166.303 37.4349 164.964 38.9964C163.626 40.5579 161.668 41.3386 159.09 41.3386ZM159.09 35.4644C159.66 35.4644 160.044 35.2165 160.243 34.7208C160.441 34.2251 160.54 33.5311 160.54 32.6388V17.0237C160.54 16.3297 160.441 15.772 160.243 15.3506C160.069 14.9045 159.697 14.6814 159.127 14.6814C158.061 14.6814 157.529 15.4869 157.529 17.098V32.676C157.529 33.593 157.64 34.287 157.863 34.758C158.086 35.2289 158.495 35.4644 159.09 35.4644Z" fill="white"/>
<path d="M169.55 9.10456H179.365C180.926 9.10456 182.128 9.46396 182.971 10.1827C183.839 10.8768 184.421 11.8682 184.719 13.1571C185.016 14.4211 185.165 16.0446 185.165 18.0275C185.165 19.8369 184.929 21.2497 184.458 22.2659C183.987 23.2821 183.169 23.9885 182.004 24.3851C182.971 24.5834 183.665 25.0667 184.086 25.835C184.533 26.6034 184.756 27.6444 184.756 28.9581L184.681 41.0412H178.435V28.5491C178.435 27.6568 178.262 27.0867 177.915 26.8389C177.568 26.591 176.936 26.4671 176.019 26.4671V41.0412H169.55V9.10456ZM177.58 20.9274C178.472 20.9274 178.919 19.9608 178.919 18.0275C178.919 17.1848 178.881 16.5527 178.807 16.1314C178.733 15.71 178.596 15.425 178.398 15.2763C178.2 15.1027 177.915 15.016 177.543 15.016H176.056V20.9274H177.58Z" fill="white"/>
<path d="M187.268 41.0412V9.10456H200.057V15.2763H193.774V21.4851H199.797V27.5081H193.774V34.8323H200.466V41.0412H187.268Z" fill="white"/>
<path d="M206.456 41.0412V30.5196L201.362 9.10456H207.683L209.467 19.9236L211.252 9.10456H217.572L212.479 30.5196V41.0412H206.456Z" fill="white"/>
<path d="M219.182 41.0412V9.10456H225.502V21.8941L228.477 9.10456H234.909L231.339 23.7159L235.652 41.0412H229.034L225.539 25.5748V41.0412H219.182Z" fill="white"/>
<path d="M244.34 41.3386C241.762 41.3386 239.804 40.5579 238.466 38.9964C237.127 37.4101 236.458 35.1917 236.458 32.3413V17.1352C236.458 14.384 237.127 12.3143 238.466 10.9263C239.804 9.51353 241.762 8.80713 244.34 8.80713C246.918 8.80713 248.876 9.51353 250.214 10.9263C251.553 12.3143 252.222 14.384 252.222 17.1352V32.3413C252.222 35.2165 251.553 37.4349 250.214 38.9964C248.876 40.5579 246.918 41.3386 244.34 41.3386ZM244.34 35.4644C244.91 35.4644 245.294 35.2165 245.493 34.7208C245.691 34.2251 245.79 33.5311 245.79 32.6388V17.0237C245.79 16.3297 245.691 15.772 245.493 15.3506C245.319 14.9045 244.947 14.6814 244.377 14.6814C243.311 14.6814 242.779 15.4869 242.779 17.098V32.676C242.779 33.593 242.89 34.287 243.113 34.758C243.336 35.2289 243.745 35.4644 244.34 35.4644Z" fill="white"/>
<path d="M0.22168 48.8071V0.807129H14.8655L18.8897 30.0877L22.914 0.807129H37.6696V48.8071H28.8945V14.2181L23.3611 48.8071H14.7537L8.885 14.2181V48.8071H0.22168Z" fill="#247894"/>
<path d="M28.6351 0.807129H41.658C45.1606 0.807129 47.6944 1.66394 49.2594 3.37756C50.8616 5.09118 51.6628 7.88513 51.6628 11.7594V13.8828C51.6628 18.4649 50.0232 21.2029 46.7442 22.097C48.7563 22.6185 50.1723 23.8292 50.992 25.7291C51.8118 27.629 52.2217 30.1436 52.2217 33.2728C52.2217 38.3764 51.4578 42.2507 49.9301 44.8956C48.4024 47.5033 45.645 48.8071 41.658 48.8071H28.6351V0.807129ZM39.9812 18.856C40.801 18.856 41.3599 18.558 41.658 17.962C41.9561 17.3287 42.1052 16.4532 42.1052 15.3357V10.5301C42.1052 8.96545 41.4158 8.18315 40.0371 8.18315H38.025V18.856H39.9812ZM38.9752 40.3694C41.4717 40.3694 42.72 39.1773 42.72 36.7932V30.8141C42.72 29.3613 42.4964 28.2623 42.0493 27.5173C41.6394 26.7722 40.8941 26.3997 39.8136 26.3997H38.025V40.3135L38.9752 40.3694Z" fill="#247894"/>
</svg>
