<svg width="112" height="50" viewBox="0 0 112 50" fill="none" xmlns="http://www.w3.org/2000/svg">
<path d="M92.8274 49.9811C91.6209 49.9811 90.559 49.7423 89.6416 49.2648C88.7368 48.7998 88.0267 48.1463 87.5115 47.3043C87.0088 46.4623 86.7574 45.4884 86.7574 44.3825C86.7574 43.7164 86.8706 43.0189 87.0968 42.29C87.323 41.5486 87.6874 40.8574 88.1901 40.2165C88.6928 39.5755 89.3526 39.054 90.1694 38.6519C90.9988 38.2497 92.0042 38.0486 93.1855 38.0486C94.0401 38.0486 94.7564 38.1429 95.3345 38.3314C95.9251 38.5199 96.4027 38.765 96.7671 39.0666C97.1442 39.3682 97.4269 39.6887 97.6154 40.028C97.8165 40.3673 97.9484 40.694 98.0113 41.0082C98.0867 41.3098 98.1244 41.5611 98.1244 41.7622C98.1244 42.9812 97.6091 43.9238 96.5786 44.5898C95.5607 45.2433 94.1155 45.5701 92.243 45.5701C91.8157 45.5701 91.4073 45.5512 91.0177 45.5135C90.6407 45.4758 90.2888 45.4318 89.9621 45.3815C90.2008 46.0099 90.5967 46.4749 91.1496 46.7765C91.7026 47.0655 92.2744 47.2101 92.8651 47.2101C93.7196 47.2101 94.4736 47.0593 95.1271 46.7576C95.7806 46.4435 96.3964 45.9659 96.9745 45.325L98.6522 47.7379C98.2501 48.0646 97.7976 48.4039 97.295 48.7558C96.8048 49.1077 96.2016 49.3967 95.4853 49.6229C94.769 49.8617 93.883 49.9811 92.8274 49.9811ZM93.2421 40.8762C92.5006 40.8762 91.8471 41.0647 91.2816 41.4418C90.7161 41.8188 90.3014 42.3152 90.0375 42.931C90.3516 42.9812 90.6595 43.0252 90.9611 43.0629C91.2753 43.0881 91.5832 43.1006 91.8848 43.1006C92.1613 43.1006 92.4755 43.0755 92.8274 43.0252C93.1918 42.9749 93.5437 42.8995 93.883 42.799C94.2349 42.6985 94.5239 42.5728 94.7501 42.422C94.9763 42.2586 95.0894 42.0701 95.0894 41.8565C95.0894 41.7559 95.0392 41.6303 94.9386 41.4795C94.8381 41.3287 94.6559 41.1904 94.392 41.0647C94.1281 40.9391 93.7448 40.8762 93.2421 40.8762Z" fill="white"/>
<path d="M75.3743 49.8492C75.324 49.246 75.2801 48.4731 75.2424 47.5305C75.2172 46.588 75.2047 45.5638 75.2047 44.4579C75.2047 43.4777 75.2109 42.466 75.2235 41.4229C75.2486 40.3799 75.2801 39.3556 75.3178 38.3503C75.368 37.3323 75.4183 36.3835 75.4686 35.5038C75.5314 34.6116 75.6005 33.8324 75.6759 33.1664L78.9559 33.3926C78.78 34.6744 78.6418 35.9751 78.5412 37.2946C78.4532 38.6016 78.3967 39.9337 78.3716 41.291C79.0753 40.8009 79.8922 40.2856 80.8221 39.7452C81.7647 39.1923 82.8957 38.5702 84.2153 37.879L85.9872 40.8386C84.63 41.2658 83.4298 41.756 82.3867 42.3089C81.3437 42.8493 80.4891 43.396 79.8231 43.9489C79.6974 44.0369 79.6157 44.0997 79.578 44.1374C79.5403 44.1751 79.5214 44.2003 79.5214 44.2128C79.5214 44.2882 79.7288 44.4265 80.1435 44.6275C80.6965 44.9166 81.2683 45.1993 81.8589 45.4758C82.4496 45.7523 83.1094 46.0351 83.8382 46.3241C84.5671 46.6006 85.4028 46.8959 86.3454 47.2101L85.0447 50C83.9011 49.6607 82.7575 49.2334 81.6139 48.7181C80.4703 48.2029 79.4335 47.6814 78.5035 47.1535C78.5161 47.5808 78.5349 48.0144 78.5601 48.4542C78.5978 48.8941 78.6292 49.3339 78.6543 49.7738L75.3743 49.8492Z" fill="white"/>
<path d="M70.2154 36.2956C70.2154 36.1825 70.2091 36.0694 70.1966 35.9563C70.1966 35.8306 70.1966 35.6923 70.1966 35.5415C70.1966 35.1394 70.2091 34.7121 70.2343 34.2597C70.2594 33.8073 70.2846 33.424 70.3097 33.1098L73.6651 33.1664C73.6274 33.5936 73.5834 34.0775 73.5331 34.6179C73.4954 35.1582 73.4703 35.7175 73.4577 36.2956H70.2154ZM70.14 49.7926C70.1023 49.0135 70.0772 48.184 70.0646 47.3043C70.0521 46.4121 70.0458 45.5198 70.0458 44.6275C70.0458 43.4588 70.0583 42.3215 70.0835 41.2156C70.1086 40.1097 70.14 39.1043 70.1777 38.1995L73.42 38.1806C73.3698 38.7587 73.3384 39.475 73.3258 40.3296C73.3132 41.1716 73.3069 42.0576 73.3069 42.9875C73.3069 43.9049 73.3132 44.8098 73.3258 45.702C73.3384 46.5943 73.3509 47.4049 73.3635 48.1338C73.3886 48.8501 73.4075 49.403 73.42 49.7926H70.14Z" fill="white"/>
<path d="M51.7522 49.8492C51.7145 48.605 51.6957 47.4112 51.6957 46.2676C51.6957 44.2066 51.7585 42.3403 51.8842 40.6689C52.0099 38.9975 52.1921 37.5774 52.4309 36.4087C52.544 35.8683 52.701 35.3468 52.9021 34.8441C53.1158 34.3414 53.4111 33.933 53.7881 33.6188C54.1777 33.292 54.6867 33.1287 55.315 33.1287C55.9308 33.1287 56.4523 33.292 56.8796 33.6188C57.3069 33.933 57.6525 34.3163 57.9164 34.7687C58.1929 35.2211 58.3939 35.6546 58.5196 36.0694C58.8464 37.0496 59.1228 38.0298 59.349 39.0101C59.5752 39.9903 59.7763 40.9265 59.9523 41.8188C60.0779 41.1653 60.2225 40.4804 60.3858 39.7641C60.5492 39.0352 60.7126 38.3503 60.8759 37.7094C61.0393 37.0559 61.1901 36.5155 61.3284 36.0882C61.9693 34.1152 62.9558 33.1287 64.2879 33.1287C65.0294 33.1287 65.6577 33.3989 66.173 33.9392C66.6882 34.4671 67.0652 35.2337 67.304 36.239C67.4171 36.6914 67.5302 37.3512 67.6433 38.2183C67.769 39.0855 67.8821 40.116 67.9826 41.3098C68.0957 42.4911 68.19 43.7981 68.2654 45.2308C68.3534 46.6634 68.4225 48.184 68.4728 49.7926L65.155 49.7172C65.155 49.0512 65.1362 48.2783 65.0985 47.3986C65.0734 46.5189 65.0294 45.6078 64.9665 44.6653C64.9163 43.7102 64.8534 42.7802 64.778 41.8754C64.7152 40.9705 64.6461 40.1537 64.5707 39.4248C64.5078 38.6959 64.445 38.1178 64.3822 37.6905C64.3193 37.2507 64.2628 37.0307 64.2125 37.0307C64.1999 37.0307 64.1308 37.257 64.0052 37.7094C63.892 38.1492 63.7475 38.7399 63.5716 39.4813C63.4082 40.2228 63.226 41.0396 63.0249 41.9319C62.8238 42.8242 62.6228 43.7227 62.4217 44.6276C62.2332 45.5198 62.0635 46.3492 61.9127 47.1158C61.7619 47.8699 61.6425 48.4857 61.5546 48.9632L58.595 49.0386C58.4442 48.3348 58.262 47.562 58.0483 46.72C57.8473 45.8654 57.6336 44.9983 57.4074 44.1186C57.1938 43.2263 56.9801 42.3718 56.7665 41.5549C56.5529 40.7255 56.3518 39.984 56.1633 39.3305C55.9873 38.677 55.8428 38.1618 55.7297 37.7848C55.6166 37.3952 55.5475 37.2004 55.5224 37.2004C55.4721 37.2004 55.4155 37.4769 55.3527 38.0298C55.3024 38.5702 55.2522 39.3054 55.2019 40.2354C55.1516 41.1653 55.1076 42.2147 55.0699 43.3834C55.0448 44.5522 55.0322 45.7586 55.0322 47.0027C55.0322 47.5934 55.0322 48.1338 55.0322 48.6239C55.0448 49.114 55.0574 49.5162 55.0699 49.8303L51.7522 49.8492Z" fill="white"/>
<path d="M43.7872 50C43.3097 50 42.9138 49.8932 42.5996 49.6795C42.2855 49.4659 42.053 49.1894 41.9022 48.8501C41.7514 48.5108 41.676 48.1589 41.676 47.7945C41.676 47.1033 41.8959 46.5755 42.3357 46.211C42.7756 45.834 43.3034 45.6455 43.9192 45.6455C44.5475 45.6455 45.0439 45.834 45.4084 46.211C45.7728 46.588 45.9551 47.0907 45.9551 47.7191C45.9551 48.5234 45.7351 49.1015 45.2953 49.4533C44.868 49.8178 44.3653 50 43.7872 50Z" fill="white"/>
<path d="M32.4585 49.9434C32.5088 48.9004 32.5465 47.8573 32.5716 46.8142C32.5967 45.7712 32.6093 44.7406 32.6093 43.7227C32.5967 42.7927 32.5779 41.8754 32.5527 40.9705C32.5402 40.0531 32.5088 39.1671 32.4585 38.3126L35.6254 38.2183C35.638 38.6833 35.6568 39.1609 35.682 39.651C36.0841 39.1483 36.5491 38.7461 37.0769 38.4445C37.6173 38.1304 38.2331 37.9733 38.9243 37.9733C39.1882 37.9733 39.5275 38.011 39.9422 38.0864C40.3569 38.1618 40.7779 38.3063 41.2052 38.5199L40.847 41.7057C40.5329 41.5172 40.1935 41.3852 39.8291 41.3098C39.4772 41.2219 39.1819 41.1779 38.9431 41.1779C38.1388 41.1779 37.4539 41.5423 36.8884 42.2712C36.3354 42.9875 35.9584 43.9866 35.7574 45.2685C35.7574 46.1482 35.7448 46.9902 35.7197 47.7945C35.7071 48.5862 35.6757 49.3025 35.6254 49.9434H32.4585Z" fill="white"/>
<path d="M14.0141 49.8492C13.9764 48.605 13.9576 47.4112 13.9576 46.2676C13.9576 44.2066 14.0204 42.3403 14.1461 40.6689C14.2718 38.9975 14.454 37.5774 14.6928 36.4087C14.8059 35.8683 14.9629 35.3468 15.164 34.8441C15.3777 34.3414 15.673 33.933 16.05 33.6188C16.4396 33.292 16.9485 33.1287 17.5769 33.1287C18.1927 33.1287 18.7142 33.292 19.1415 33.6188C19.5688 33.933 19.9144 34.3163 20.1783 34.7687C20.4548 35.2211 20.6558 35.6546 20.7815 36.0694C21.1083 37.0496 21.3847 38.0298 21.6109 39.0101C21.8372 39.9903 22.0382 40.9265 22.2142 41.8188C22.3398 41.1653 22.4844 40.4804 22.6477 39.7641C22.8111 39.0352 22.9745 38.3503 23.1378 37.7094C23.3012 37.0559 23.452 36.5155 23.5903 36.0882C24.2312 34.1152 25.2177 33.1287 26.5498 33.1287C27.2913 33.1287 27.9196 33.3989 28.4349 33.9392C28.9501 34.4671 29.3271 35.2337 29.5659 36.239C29.679 36.6914 29.7921 37.3512 29.9052 38.2183C30.0309 39.0855 30.144 40.116 30.2445 41.3098C30.3576 42.4911 30.4519 43.7981 30.5273 45.2308C30.6153 46.6634 30.6844 48.184 30.7347 49.7926L27.4169 49.7172C27.4169 49.0512 27.3981 48.2783 27.3604 47.3986C27.3353 46.5189 27.2913 45.6078 27.2284 44.6653C27.1782 43.7102 27.1153 42.7802 27.0399 41.8754C26.9771 40.9705 26.908 40.1537 26.8326 39.4248C26.7697 38.6959 26.7069 38.1178 26.6441 37.6905C26.5812 37.2507 26.5247 37.0307 26.4744 37.0307C26.4618 37.0307 26.3927 37.257 26.2671 37.7094C26.1539 38.1492 26.0094 38.7399 25.8335 39.4813C25.6701 40.2228 25.4879 41.0396 25.2868 41.9319C25.0857 42.8242 24.8847 43.7227 24.6836 44.6276C24.4951 45.5198 24.3254 46.3492 24.1746 47.1158C24.0238 47.8699 23.9044 48.4857 23.8165 48.9632L20.8569 49.0386C20.7061 48.3348 20.5239 47.562 20.3102 46.72C20.1092 45.8654 19.8955 44.9983 19.6693 44.1186C19.4557 43.2263 19.242 42.3718 19.0284 41.5549C18.8148 40.7255 18.6137 39.984 18.4252 39.3305C18.2492 38.677 18.1047 38.1618 17.9916 37.7848C17.8785 37.3952 17.8094 37.2004 17.7843 37.2004C17.734 37.2004 17.6774 37.4769 17.6146 38.0298C17.5643 38.5702 17.5141 39.3054 17.4638 40.2354C17.4135 41.1653 17.3695 42.2147 17.3318 43.3834C17.3067 44.5522 17.2941 45.7586 17.2941 47.0027C17.2941 47.5934 17.2941 48.1338 17.2941 48.6239C17.3067 49.114 17.3193 49.5162 17.3318 49.8303L14.0141 49.8492Z" fill="white"/>
<path d="M112 12.5414L101.397 12.5414V8.81609H99.0451V1.37977C99.0451 0.621001 98.4246 0 97.6661 0L97.4194 0C96.7588 0 96.2038 0.471296 96.0712 1.09406C95.9386 0.471192 95.3833 0 94.7231 0L94.4763 0C93.8351 0 93.2969 0.445701 93.1445 1.04159C92.9921 0.445701 92.4538 0 91.8128 0L91.566 0C90.8075 0 90.187 0.620828 90.187 1.37977V12.5414L21.8165 12.5414V1.37977C21.8165 0.621001 21.1961 0 20.4376 0L20.1908 0C19.5498 0 19.0115 0.445804 18.8591 1.04162C18.7067 0.445804 18.1686 0 17.5273 0L17.2805 0C16.6182 0 16.0609 0.474055 15.9306 1.09978C15.8003 0.474055 15.2433 0 14.5806 0L14.3339 0C13.5757 0 12.9549 0.621001 12.9549 1.37977V8.81609H10.6037V12.5414H0L0 14.4586H10.6037L10.6037 18.1839H12.9549V25.6202C12.9549 26.3792 13.5757 27 14.3339 27H14.5806C15.2433 27 15.8003 26.5261 15.9306 25.9003C16.0609 26.5261 16.6182 27 17.2805 27H17.5272C18.1686 27 18.7067 26.5543 18.859 25.9585C19.0115 26.5543 19.5498 27 20.1908 27H20.4375C21.196 27 21.8165 26.3792 21.8165 25.6202V14.4586L90.187 14.4586V25.6202C90.187 26.379 90.8075 27 91.566 27H91.8127C92.4538 27 92.9921 26.5542 93.1445 25.9583C93.2969 26.5542 93.835 27 94.4763 27H94.7231C95.3833 27 95.9386 26.5287 96.0712 25.906C96.2037 26.5288 96.7588 27 97.4193 27H97.6661C98.4246 27 99.045 26.3792 99.045 25.6202V18.1839H101.397V14.4586H112L112 12.5414Z" fill="#247894"/>
</svg>
