<svg width="1920" height="361" viewBox="0 0 1920 361" fill="none" xmlns="http://www.w3.org/2000/svg">
<mask id="path-1-outside-1_1_10" maskUnits="userSpaceOnUse" x="-114" y="0" width="2069" height="361" fill="black">
<rect fill="white" x="-114" width="2069" height="361"/>
<path d="M-113 356.718V4.28229H-5.6538L23.8459 219.272L53.3457 4.28229H161.511V356.718H97.1855V102.751L56.6234 356.718H-6.47324L-49.4937 102.751V356.718H-113Z"/>
<path d="M189.411 356.718V4.28229H257.424V356.718H189.411Z"/>
<path d="M285.515 356.718V4.28229H355.167V145.421L387.945 4.28229H458.826L419.493 165.525L467.02 356.718H394.09L355.577 186.039V356.718H285.515Z"/>
<path d="M478.771 356.718V4.28229H619.714V72.3897H550.472V140.907H616.846V207.374H550.472V288.2H624.221V356.718H478.771Z"/>
<path d="M647.62 4.28229H743.084C768.76 4.28229 787.334 10.5733 798.806 23.1554C810.551 35.7375 816.424 56.2518 816.424 84.6983V100.289C816.424 133.933 804.405 154.037 780.368 160.601C795.118 164.43 805.498 173.32 811.507 187.27C817.516 201.219 820.521 219.682 820.521 242.658C820.521 280.131 814.921 308.578 803.722 327.998C792.523 347.144 772.311 356.718 743.084 356.718H647.62V4.28229ZM730.792 136.805C736.802 136.805 740.899 134.616 743.084 130.24C745.269 125.59 746.362 119.162 746.362 110.957V75.672C746.362 64.184 741.309 58.44 731.202 58.44H716.452V136.805H730.792ZM723.418 294.765C741.718 294.765 750.869 286.012 750.869 268.506V224.606C750.869 213.938 749.23 205.869 745.952 200.399C742.948 194.928 737.485 192.193 729.563 192.193H716.452V294.354L723.418 294.765Z"/>
<path d="M927.669 360C899.261 360 877.683 351.384 862.933 334.152C848.183 316.646 840.808 292.166 840.808 260.711V92.904C840.808 62.5429 848.183 39.7036 862.933 24.3863C877.683 8.79543 899.261 1 927.669 1C956.076 1 977.654 8.79543 992.404 24.3863C1007.15 39.7036 1014.53 62.5429 1014.53 92.904V260.711C1014.53 292.44 1007.15 316.92 992.404 334.152C977.654 351.384 956.076 360 927.669 360ZM927.669 295.175C933.951 295.175 938.185 292.44 940.37 286.969C942.555 281.499 943.648 273.84 943.648 263.993V91.6731C943.648 84.0145 942.555 77.8602 940.37 73.2103C938.458 68.2869 934.361 65.8251 928.078 65.8251C916.333 65.8251 910.46 74.7147 910.46 92.4937V264.403C910.46 274.524 911.69 282.182 914.148 287.379C916.606 292.576 921.113 295.175 927.669 295.175Z"/>
<path d="M1042.93 4.28229H1151.1C1168.31 4.28229 1181.56 8.24839 1190.84 16.1806C1200.4 23.8392 1206.82 34.7802 1210.1 49.0034C1213.38 62.9531 1215.02 80.869 1215.02 102.751C1215.02 122.718 1212.42 138.309 1207.23 149.523C1202.04 160.738 1193.03 168.533 1180.19 172.91C1190.84 175.098 1198.49 180.432 1203.13 188.911C1208.05 197.39 1210.51 208.878 1210.51 223.375L1209.69 356.718H1140.86V218.862C1140.86 209.015 1138.94 202.724 1135.12 199.989C1131.3 197.253 1124.33 195.886 1114.22 195.886V356.718H1042.93V4.28229ZM1131.43 134.753C1141.27 134.753 1146.18 124.086 1146.18 102.751C1146.18 93.4511 1145.77 86.4762 1144.95 81.8263C1144.13 77.1764 1142.63 74.0309 1140.45 72.3897C1138.26 70.475 1135.12 69.5177 1131.02 69.5177H1114.63V134.753H1131.43Z"/>
<path d="M1238.19 356.718V4.28229H1379.13V72.3897H1309.89V140.907H1376.27V207.374H1309.89V288.2H1383.64V356.718H1238.19Z"/>
<path d="M1449.65 356.718V240.607L1393.52 4.28229H1463.17L1482.84 123.675L1502.5 4.28229H1572.16L1516.02 240.607V356.718H1449.65Z"/>
<path d="M1589.89 356.718V4.28229H1659.54V145.421L1692.32 4.28229H1763.2L1723.87 165.525L1771.4 356.718H1698.47L1659.95 186.039V356.718H1589.89Z"/>
<path d="M1867.14 360C1838.73 360 1817.15 351.384 1802.4 334.152C1787.65 316.646 1780.28 292.166 1780.28 260.711V92.904C1780.28 62.5429 1787.65 39.7036 1802.4 24.3863C1817.15 8.79543 1838.73 1 1867.14 1C1895.55 1 1917.13 8.79543 1931.88 24.3863C1946.63 39.7036 1954 62.5429 1954 92.904V260.711C1954 292.44 1946.63 316.92 1931.88 334.152C1917.13 351.384 1895.55 360 1867.14 360ZM1867.14 295.175C1873.42 295.175 1877.66 292.44 1879.84 286.969C1882.03 281.499 1883.12 273.84 1883.12 263.993V91.6731C1883.12 84.0145 1882.03 77.8602 1879.84 73.2103C1877.93 68.2869 1873.83 65.8251 1867.55 65.8251C1855.8 65.8251 1849.93 74.7147 1849.93 92.4937V264.403C1849.93 274.524 1851.16 282.182 1853.62 287.379C1856.08 292.576 1860.58 295.175 1867.14 295.175Z"/>
</mask>
<path d="M-113 356.718V4.28229H-5.6538L23.8459 219.272L53.3457 4.28229H161.511V356.718H97.1855V102.751L56.6234 356.718H-6.47324L-49.4937 102.751V356.718H-113Z" stroke="#4A4949" stroke-width="2" mask="url(#path-1-outside-1_1_10)"/>
<path d="M189.411 356.718V4.28229H257.424V356.718H189.411Z" stroke="#4A4949" stroke-width="2" mask="url(#path-1-outside-1_1_10)"/>
<path d="M285.515 356.718V4.28229H355.167V145.421L387.945 4.28229H458.826L419.493 165.525L467.02 356.718H394.09L355.577 186.039V356.718H285.515Z" stroke="#4A4949" stroke-width="2" mask="url(#path-1-outside-1_1_10)"/>
<path d="M478.771 356.718V4.28229H619.714V72.3897H550.472V140.907H616.846V207.374H550.472V288.2H624.221V356.718H478.771Z" stroke="#4A4949" stroke-width="2" mask="url(#path-1-outside-1_1_10)"/>
<path d="M647.62 4.28229H743.084C768.76 4.28229 787.334 10.5733 798.806 23.1554C810.551 35.7375 816.424 56.2518 816.424 84.6983V100.289C816.424 133.933 804.405 154.037 780.368 160.601C795.118 164.43 805.498 173.32 811.507 187.27C817.516 201.219 820.521 219.682 820.521 242.658C820.521 280.131 814.921 308.578 803.722 327.998C792.523 347.144 772.311 356.718 743.084 356.718H647.62V4.28229ZM730.792 136.805C736.802 136.805 740.899 134.616 743.084 130.24C745.269 125.59 746.362 119.162 746.362 110.957V75.672C746.362 64.184 741.309 58.44 731.202 58.44H716.452V136.805H730.792ZM723.418 294.765C741.718 294.765 750.869 286.012 750.869 268.506V224.606C750.869 213.938 749.23 205.869 745.952 200.399C742.948 194.928 737.485 192.193 729.563 192.193H716.452V294.354L723.418 294.765Z" stroke="#4A4949" stroke-width="2" mask="url(#path-1-outside-1_1_10)"/>
<path d="M927.669 360C899.261 360 877.683 351.384 862.933 334.152C848.183 316.646 840.808 292.166 840.808 260.711V92.904C840.808 62.5429 848.183 39.7036 862.933 24.3863C877.683 8.79543 899.261 1 927.669 1C956.076 1 977.654 8.79543 992.404 24.3863C1007.15 39.7036 1014.53 62.5429 1014.53 92.904V260.711C1014.53 292.44 1007.15 316.92 992.404 334.152C977.654 351.384 956.076 360 927.669 360ZM927.669 295.175C933.951 295.175 938.185 292.44 940.37 286.969C942.555 281.499 943.648 273.84 943.648 263.993V91.6731C943.648 84.0145 942.555 77.8602 940.37 73.2103C938.458 68.2869 934.361 65.8251 928.078 65.8251C916.333 65.8251 910.46 74.7147 910.46 92.4937V264.403C910.46 274.524 911.69 282.182 914.148 287.379C916.606 292.576 921.113 295.175 927.669 295.175Z" stroke="#4A4949" stroke-width="2" mask="url(#path-1-outside-1_1_10)"/>
<path d="M1042.93 4.28229H1151.1C1168.31 4.28229 1181.56 8.24839 1190.84 16.1806C1200.4 23.8392 1206.82 34.7802 1210.1 49.0034C1213.38 62.9531 1215.02 80.869 1215.02 102.751C1215.02 122.718 1212.42 138.309 1207.23 149.523C1202.04 160.738 1193.03 168.533 1180.19 172.91C1190.84 175.098 1198.49 180.432 1203.13 188.911C1208.05 197.39 1210.51 208.878 1210.51 223.375L1209.69 356.718H1140.86V218.862C1140.86 209.015 1138.94 202.724 1135.12 199.989C1131.3 197.253 1124.33 195.886 1114.22 195.886V356.718H1042.93V4.28229ZM1131.43 134.753C1141.27 134.753 1146.18 124.086 1146.18 102.751C1146.18 93.4511 1145.77 86.4762 1144.95 81.8263C1144.13 77.1764 1142.63 74.0309 1140.45 72.3897C1138.26 70.475 1135.12 69.5177 1131.02 69.5177H1114.63V134.753H1131.43Z" stroke="#4A4949" stroke-width="2" mask="url(#path-1-outside-1_1_10)"/>
<path d="M1238.19 356.718V4.28229H1379.13V72.3897H1309.89V140.907H1376.27V207.374H1309.89V288.2H1383.64V356.718H1238.19Z" stroke="#4A4949" stroke-width="2" mask="url(#path-1-outside-1_1_10)"/>
<path d="M1449.65 356.718V240.607L1393.52 4.28229H1463.17L1482.84 123.675L1502.5 4.28229H1572.16L1516.02 240.607V356.718H1449.65Z" stroke="#4A4949" stroke-width="2" mask="url(#path-1-outside-1_1_10)"/>
<path d="M1589.89 356.718V4.28229H1659.54V145.421L1692.32 4.28229H1763.2L1723.87 165.525L1771.4 356.718H1698.47L1659.95 186.039V356.718H1589.89Z" stroke="#4A4949" stroke-width="2" mask="url(#path-1-outside-1_1_10)"/>
<path d="M1867.14 360C1838.73 360 1817.15 351.384 1802.4 334.152C1787.65 316.646 1780.28 292.166 1780.28 260.711V92.904C1780.28 62.5429 1787.65 39.7036 1802.4 24.3863C1817.15 8.79543 1838.73 1 1867.14 1C1895.55 1 1917.13 8.79543 1931.88 24.3863C1946.63 39.7036 1954 62.5429 1954 92.904V260.711C1954 292.44 1946.63 316.92 1931.88 334.152C1917.13 351.384 1895.55 360 1867.14 360ZM1867.14 295.175C1873.42 295.175 1877.66 292.44 1879.84 286.969C1882.03 281.499 1883.12 273.84 1883.12 263.993V91.6731C1883.12 84.0145 1882.03 77.8602 1879.84 73.2103C1877.93 68.2869 1873.83 65.8251 1867.55 65.8251C1855.8 65.8251 1849.93 74.7147 1849.93 92.4937V264.403C1849.93 274.524 1851.16 282.182 1853.62 287.379C1856.08 292.576 1860.58 295.175 1867.14 295.175Z" stroke="#4A4949" stroke-width="2" mask="url(#path-1-outside-1_1_10)"/>
</svg>
