<svg width="46" height="54" viewBox="0 0 46 54" fill="none" xmlns="http://www.w3.org/2000/svg">
<path d="M43.9804 19.055L33.9818 15.9704C33.2774 10.538 28.6212 6.32812 23 6.32812C17.379 6.32812 12.7227 10.5379 12.0182 15.9704L2.01969 19.055C1.30071 19.2768 0.837383 19.9744 0.911738 20.7231L4.07602 52.5742C4.15639 53.3835 4.8372 54 5.65036 54H40.3495C41.1627 54 41.8434 53.3835 41.9238 52.5743L45.0883 20.7231C45.1627 19.9744 44.6994 19.2767 43.9804 19.055ZM23 9.4922C27.3617 9.4922 30.9102 13.0407 30.9102 17.4024C30.9102 21.7641 27.3616 25.3126 23 25.3126C18.6385 25.3126 15.0899 21.7641 15.0899 17.4024C15.0899 13.0407 18.6383 9.4922 23 9.4922ZM38.9168 50.8359H7.08295L4.18824 21.6972L12.0827 19.2616C12.9695 24.4858 17.5271 28.4766 23 28.4766C28.4729 28.4766 33.0305 24.4859 33.9174 19.2617L41.8119 21.6972L38.9168 50.8359Z" fill="#BCBDBF"/>
<path d="M6.56291 13.2018C6.85633 13.7669 7.46066 14.1024 8.09443 14.0497C8.72914 13.9984 9.27104 13.5717 9.46996 12.9668C11.3975 7.10356 16.8348 3.16407 23.0001 3.16407C29.1653 3.16407 34.6025 7.10356 36.5301 12.9668C36.749 13.6328 37.3679 14.0551 38.0327 14.0551C38.1965 14.0551 38.363 14.0295 38.5271 13.9756C39.3572 13.7027 39.8088 12.8087 39.5359 11.9786C38.4005 8.52497 36.245 5.55327 33.3024 3.38493C30.2971 1.1705 26.7345 0 23.0001 0C19.2654 0 15.703 1.1705 12.6977 3.38503C10.6949 4.86086 9.05683 6.70868 7.8567 8.82735L7.4344 8.01407C7.03183 7.23856 6.07691 6.93639 5.30129 7.33907C4.52588 7.74165 4.22371 8.69678 4.62629 9.47219L6.56291 13.2018Z" fill="#BCBDBF"/>
<path d="M21.8813 18.521C22.1902 18.8299 22.5951 18.9844 22.9999 18.9844C23.4047 18.9844 23.8097 18.8299 24.1186 18.521C24.7363 17.9032 24.7363 16.9016 24.1186 16.2837L21.8895 14.0547C21.2718 13.437 20.27 13.437 19.6522 14.0547C19.0344 14.6725 19.0344 15.6742 19.6523 16.292L21.8813 18.521Z" fill="#BCBDBF"/>
<path d="M22.7805 32.6962C21.9068 32.6962 21.1985 33.4045 21.1985 34.2782V43.9795C21.1985 44.8532 21.9068 45.5616 22.7805 45.5616C23.6542 45.5616 24.3625 44.8532 24.3625 43.9795V34.2782C24.3625 33.4045 23.6542 32.6962 22.7805 32.6962Z" fill="#BCBDBF"/>
</svg>
