<svg width="45" height="43" viewBox="0 0 45 43" fill="none" xmlns="http://www.w3.org/2000/svg">
<path d="M18.6719 8.25674H18.1674C18.7884 7.42182 19.1504 6.43043 19.1504 5.36688C19.1504 2.40758 16.3598 0 12.9297 0C9.49959 0 6.70898 2.40758 6.70898 5.36688C6.70898 6.43043 7.07093 7.42182 7.69195 8.25674H7.1875C3.2297 8.25674 0.00976562 11.0347 0.00976562 14.4493V22.8712C0.00976562 24.9199 1.94172 26.5867 4.31641 26.5867C4.81952 26.5867 5.30282 26.5119 5.75195 26.3745V38.559C5.75195 40.6077 7.68391 42.2745 10.0586 42.2745C11.1606 42.2745 12.1672 41.9156 12.9297 41.3261C13.6922 41.9156 14.6988 42.2745 15.8008 42.2745C18.1755 42.2745 20.1074 40.6077 20.1074 38.559V26.3745C20.5566 26.5119 21.0399 26.5867 21.543 26.5867C23.9177 26.5867 25.8496 24.9199 25.8496 22.8712V14.4493C25.8496 11.0347 22.6297 8.25674 18.6719 8.25674ZM9.58008 5.36688C9.58008 3.77341 11.0827 2.47702 12.9297 2.47702C14.7767 2.47702 16.2793 3.77341 16.2793 5.36688C16.2793 6.96035 14.7767 8.25674 12.9297 8.25674C11.0827 8.25674 9.58008 6.96035 9.58008 5.36688ZM22.9785 22.8712C22.9785 23.5541 22.3345 24.1097 21.543 24.1097C20.7514 24.1097 20.1074 23.5541 20.1074 22.8712V16.2658C20.1074 15.5818 19.4647 15.0273 18.6719 15.0273C17.8791 15.0273 17.2363 15.5818 17.2363 16.2658V38.559C17.2363 39.2419 16.5923 39.7975 15.8008 39.7975C15.0092 39.7975 14.3652 39.2419 14.3652 38.559V28.6509C14.3652 27.9669 13.7225 27.4124 12.9297 27.4124C12.1369 27.4124 11.4941 27.9669 11.4941 28.6509V38.559C11.4941 39.2419 10.8502 39.7975 10.0586 39.7975C9.26703 39.7975 8.62305 39.2419 8.62305 38.559V16.2658C8.62305 15.5818 7.9803 15.0273 7.1875 15.0273C6.3947 15.0273 5.75195 15.5818 5.75195 16.2658V22.8712C5.75195 23.5541 5.10797 24.1097 4.31641 24.1097C3.52485 24.1097 2.88086 23.5541 2.88086 22.8712V14.4493C2.88086 12.4005 4.81282 10.7338 7.1875 10.7338H18.6719C21.0466 10.7338 22.9785 12.4005 22.9785 14.4493V22.8712Z" fill="#BCBDBF"/>
<path d="M43.5547 0H24.4141C23.6213 0 22.9785 0.554523 22.9785 1.23851C22.9785 1.9225 23.6213 2.47702 24.4141 2.47702H30.6348V41.036C30.6348 41.72 31.2775 42.2745 32.0703 42.2745H43.5547C44.3475 42.2745 44.9902 41.72 44.9902 41.036V1.23851C44.9902 0.554523 44.3475 0 43.5547 0ZM42.1191 39.7975H33.5059V37.2379H34.9414C35.7342 37.2379 36.377 36.6834 36.377 35.9994C36.377 35.3154 35.7342 34.7609 34.9414 34.7609H33.5059V32.2839H36.8555C37.6483 32.2839 38.291 31.7293 38.291 31.0453C38.291 30.3614 37.6483 29.8068 36.8555 29.8068H33.5059V27.3298H34.9414C35.7342 27.3298 36.377 26.7753 36.377 26.0913C36.377 25.4073 35.7342 24.8528 34.9414 24.8528H33.5059V22.3758H36.8555C37.6483 22.3758 38.291 21.8212 38.291 21.1373C38.291 20.4533 37.6483 19.8987 36.8555 19.8987H33.5059V17.4217H34.9414C35.7342 17.4217 36.377 16.8672 36.377 16.1832C36.377 15.4992 35.7342 14.9447 34.9414 14.9447H33.5059V12.4677H36.8555C37.6483 12.4677 38.291 11.9132 38.291 11.2292C38.291 10.5452 37.6483 9.99066 36.8555 9.99066H33.5059V7.51363H34.9414C35.7342 7.51363 36.377 6.95911 36.377 6.27512C36.377 5.59113 35.7342 5.03661 34.9414 5.03661H33.5059V2.47702H42.1191V39.7975Z" fill="#BCBDBF"/>
</svg>
