<?xml version="1.0" encoding="utf-8"?><svg viewBox="0 0 1920 361" xmlns="http://www.w3.org/2000/svg" xmlns:xlink="http://www.w3.org/1999/xlink"><style>:root>svg{display:none}:root>svg:target{display:block}</style><svg viewBox="0 0 53 53" id="Goal" xmlns="http://www.w3.org/2000/svg"><g clip-path="url(#aa)"><path d="M49.11 12.674l2.57-2.57a1.554 1.554 0 00-.968-2.645l-4.768-.403-.403-4.768a1.552 1.552 0 00-2.645-.967l-2.57 2.57A26.358 26.358 0 0026.5 0C19.422 0 12.767 2.757 7.762 7.762 2.757 12.767 0 19.422 0 26.5c0 7.078 2.757 13.733 7.762 18.738C12.767 50.243 19.422 53 26.5 53c7.078 0 13.733-2.757 18.738-7.762C50.243 40.233 53 33.578 53 26.5a26.36 26.36 0 00-3.89-13.826zm-6.151-4.05a1.553 1.553 0 001.417 1.417l2.743.231-3.713 3.714-4.05-.342-.342-4.05 3.714-3.713.231 2.743zM31.779 26.5a5.285 5.285 0 01-5.279 5.28 5.285 5.285 0 01-5.28-5.28 5.285 5.285 0 015.28-5.28c.892 0 1.732.224 2.469.615l-3.567 3.567a1.552 1.552 0 102.196 2.196l3.567-3.567c.392.738.614 1.577.614 2.469zm-.553-6.922a8.339 8.339 0 00-4.726-1.463c-4.623 0-8.385 3.762-8.385 8.385 0 4.623 3.762 8.385 8.385 8.385 4.623 0 8.385-3.762 8.385-8.385 0-1.752-.541-3.38-1.463-4.726l4.433-4.433a14.526 14.526 0 013.24 9.159c0 8.048-6.547 14.596-14.595 14.596-8.048 0-14.596-6.548-14.596-14.596S18.452 11.904 26.5 11.904c3.466 0 6.653 1.215 9.16 3.24l-4.434 4.434zm11.816 23.464A23.24 23.24 0 0126.5 49.894a23.24 23.24 0 01-16.542-6.852A23.24 23.24 0 013.105 26.5 23.24 23.24 0 019.958 9.958 23.24 23.24 0 0126.5 3.105c4.088 0 8.048 1.05 11.56 3.052l-1.752 1.751a1.553 1.553 0 00-.45 1.228l.21 2.478A17.594 17.594 0 0026.5 8.799c-9.76 0-17.701 7.94-17.701 17.701 0 9.76 7.94 17.701 17.701 17.701 9.76 0 17.701-7.94 17.701-17.701 0-3.522-1.034-6.807-2.815-9.568l2.477.21c.044.002.088.004.131.004h.022c.021 0 .041-.002.062-.004.033-.002.067-.004.1-.008a4.192 4.192 0 00.16-.028 2.595 2.595 0 00.155-.044 1.774 1.774 0 00.15-.06l.057-.027a1.22 1.22 0 00.087-.049l.052-.03c.031-.02.06-.043.09-.065l.041-.03c.042-.035.083-.07.122-.11l1.751-1.75A23.275 23.275 0 0149.894 26.5a23.24 23.24 0 01-6.852 16.542z"/></g><defs><clipPath id="aa"><path d="M0 0h53v53H0z"/></clipPath></defs></svg><svg viewBox="0 0 53 53" id="age" xmlns="http://www.w3.org/2000/svg"><path d="M14.948 20.32c-.555-1.494-2.85-1.467-3.371.039L7.244 31.735c-.714 1.901 2.172 2.999 2.902 1.105l.698-1.833h4.818l.69 1.829c.736 1.903 3.613.799 2.906-1.097l-4.293-11.377a1.166 1.166 0 00-.017-.042zm-2.92 7.581l1.236-3.248L14.49 27.9h-2.463zm32.277-5.547a1.553 1.553 0 000-3.105h-4.818c-.857 0-1.553.695-1.553 1.553v11.433c0 .857.696 1.552 1.553 1.552h4.818a1.553 1.553 0 000-3.105H41.04v-2.611h2.91a1.553 1.553 0 100-3.106h-2.91v-2.61h3.265zm-15.882-.089c.845 0 1.66.25 2.357.72a1.553 1.553 0 101.738-2.573 7.287 7.287 0 00-4.095-1.252c-4.037 0-7.322 3.285-7.322 7.322s3.285 7.322 7.322 7.322c3.847 0 6.533-3.01 6.533-7.322 0-.857-.695-1.553-1.553-1.553h-3.451a1.553 1.553 0 000 3.106h1.7c-.385 1.428-1.363 2.664-3.229 2.664a4.221 4.221 0 01-4.216-4.217 4.221 4.221 0 014.216-4.216z"/><path d="M51.447 24.947c-.857 0-1.553.695-1.553 1.553a23.241 23.241 0 01-6.852 16.542A23.241 23.241 0 0126.5 49.894a23.241 23.241 0 01-16.542-6.852A23.241 23.241 0 013.105 26.5 23.241 23.241 0 019.958 9.958 23.242 23.242 0 0126.5 3.105a23.24 23.24 0 0113.659 4.401l-2.058.26c-2.02.264-1.619 3.33.388 3.08l5.555-.699c.826-.068 1.483-.858 1.397-1.683l-.495-5.574a1.553 1.553 0 00-3.094.275l.165 1.852a26.415 26.415 0 00-5.28-2.967A26.327 26.327 0 0026.5 0C19.422 0 12.767 2.757 7.762 7.762 2.757 12.767 0 19.422 0 26.5c0 7.078 2.757 13.733 7.762 18.738C12.767 50.243 19.422 53 26.5 53c7.078 0 13.733-2.757 18.738-7.762C50.243 40.233 53 33.578 53 26.5c0-.858-.695-1.553-1.553-1.553z"/></svg><svg viewBox="0 0 12 6" id="arow" xmlns="http://www.w3.org/2000/svg"><path fill-rule="evenodd" clip-rule="evenodd" d="M.172.307a.76.76 0 011.1-.128L6 4.134 10.729.179a.76.76 0 011.1.128.844.844 0 01-.123 1.15L6.49 5.821a.756.756 0 01-.978 0L.294 1.457A.844.844 0 01.172.307z"/></svg><svg viewBox="0 0 56 50" id="biceps" xmlns="http://www.w3.org/2000/svg"><path d="M56 18.377c0-8.142-6.624-14.766-14.766-14.766-8.141 0-14.765 6.624-14.765 14.766 0 4.007 1.604 7.645 4.204 10.308-2.442 1.72-5.438 2.87-8.499 3.252a12.73 12.73 0 00.719-5.811c-.285-2.596-1.346-4.923-2.937-6.56a11.573 11.573 0 002.882-9.506c-.713-4.787-4.531-8.714-9.286-9.548-3.399-.597-6.843.316-9.449 2.504A11.465 11.465 0 000 11.816v1.957c0 13.174 5.601 26.28 17.619 35.894 5.262-1.053 9.917-2.691 14.781-6.21 3.834-2.772 7.081-6.328 9.441-10.328C49.703 32.81 56 26.316 56 18.377zM18.48 46.145C8.811 38.124 3.281 26.369 3.281 13.773v-1.957a8.192 8.192 0 012.932-6.287c1.89-1.586 4.294-2.22 6.772-1.785 3.329.584 6.108 3.444 6.608 6.8.452 3.036-.72 5.95-3.135 7.795l-1.904 1.454 2.043 1.25c1.611.984 2.774 3.07 3.034 5.441.33 2.992-.8 5.979-3.097 8.196l2.28 2.36a14.236 14.236 0 001.456-1.64l1.371-.11c4.285-.343 8.387-1.92 11.658-4.465a14.681 14.681 0 004.864 1.997C33.7 39.525 26.523 44.413 18.48 46.145zm22.754-16.284c-6.332 0-11.484-5.152-11.484-11.484S34.902 6.893 41.234 6.893c6.333 0 11.485 5.151 11.485 11.484 0 6.332-5.152 11.484-11.485 11.484z"/><path d="M45.875 11.416l-2.52 2.52a4.892 4.892 0 00-2.12-.48c-.76 0-1.479.172-2.121.48l-2.52-2.52-2.32 2.32 2.52 2.52a4.893 4.893 0 00-.482 2.121c0 .759.173 1.478.482 2.12l-2.52 2.52 2.32 2.32 2.52-2.52a4.891 4.891 0 002.12.482 4.89 4.89 0 002.121-.481l2.52 2.52 2.32-2.32-2.52-2.52a4.893 4.893 0 00.481-2.121c0-.759-.172-1.478-.48-2.12l2.52-2.52-2.321-2.32zm-4.64 8.602a1.642 1.642 0 111.64-1.641c0 .905-.736 1.64-1.64 1.64z"/></svg><svg viewBox="0 0 13 25" id="btn-active-right" xmlns="http://www.w3.org/2000/svg"><path fill-rule="evenodd" clip-rule="evenodd" d="M.665 24.643c-.764-.562-.888-1.588-.276-2.291L8.957 12.5.39 2.65C-.223 1.947-.1.92.665.358c.765-.562 1.88-.448 2.492.255l9.454 10.87a1.53 1.53 0 010 2.036L3.157 24.39c-.612.703-1.727.817-2.492.255z"/></svg><svg viewBox="0 0 13 25" id="btn-disable-left" xmlns="http://www.w3.org/2000/svg"><path fill-rule="evenodd" clip-rule="evenodd" d="M12.335.357c.764.563.888 1.589.276 2.292L4.043 12.5l8.569 9.851c.611.703.487 1.73-.277 2.292-.765.562-1.88.448-2.492-.255L.388 13.518a1.53 1.53 0 010-2.037L9.843.613c.612-.703 1.727-.817 2.492-.255z"/></svg><svg viewBox="0 0 47 47" id="calendar" xmlns="http://www.w3.org/2000/svg"><path d="M35.434 21.113a1.836 1.836 0 100-3.672 1.836 1.836 0 000 3.672z"/><path d="M39.656 3.672H37.27V1.836a1.836 1.836 0 10-3.672 0v1.836h-8.354V1.836a1.836 1.836 0 10-3.672 0v1.836h-8.261V1.836a1.836 1.836 0 10-3.672 0v1.836H7.344C3.294 3.672 0 6.966 0 11.016v28.64C0 43.706 3.294 47 7.344 47h14.045a1.836 1.836 0 100-3.672H7.344a3.676 3.676 0 01-3.672-3.672v-28.64a3.676 3.676 0 013.672-3.672h2.295V9.18a1.836 1.836 0 103.671 0V7.344h8.262V9.18a1.836 1.836 0 103.672 0V7.344h8.354V9.18a1.836 1.836 0 103.672 0V7.344h2.386a3.676 3.676 0 013.672 3.672V21.48a1.836 1.836 0 003.672 0V11.016c0-4.05-3.294-7.344-7.344-7.344z"/><path d="M35.893 24.785c-6.125 0-11.108 4.983-11.108 11.108C24.785 42.017 29.768 47 35.893 47 42.017 47 47 42.017 47 35.893c0-6.125-4.983-11.108-11.107-11.108zm0 18.543c-4.1 0-7.436-3.335-7.436-7.435s3.336-7.436 7.436-7.436 7.435 3.336 7.435 7.436-3.336 7.435-7.435 7.435z"/><path d="M38.555 34.057h-.827v-1.928a1.836 1.836 0 10-3.671 0v3.764c0 1.014.822 1.835 1.836 1.835h2.662a1.836 1.836 0 100-3.671zM27.447 21.113a1.836 1.836 0 100-3.672 1.836 1.836 0 000 3.672zM19.46 29.1a1.836 1.836 0 10.001-3.672 1.836 1.836 0 000 3.672zm-7.985-7.987a1.836 1.836 0 100-3.672 1.836 1.836 0 000 3.672zm0 7.987a1.836 1.836 0 100-3.672 1.836 1.836 0 000 3.672zm0 7.986a1.836 1.836 0 100-3.672 1.836 1.836 0 000 3.672zm7.985 0a1.836 1.836 0 10.001-3.672 1.836 1.836 0 000 3.672zm0-15.973a1.836 1.836 0 100-3.672 1.836 1.836 0 000 3.672z"/></svg><svg viewBox="0 0 43 42" id="dumbbell" xmlns="http://www.w3.org/2000/svg"><path d="M37.642 19.029a4.857 4.857 0 01-3.444-1.425l-9.256-9.256c-4.382-4.76 2.134-11.269 6.89-6.89l9.255 9.257c3.067 3.054.834 8.343-3.445 8.314zM28.386 3.28c-1.426-.01-2.17 1.754-1.148 2.772l9.256 9.256c1.587 1.46 3.757-.712 2.297-2.297l-9.256-9.256a1.619 1.619 0 00-1.149-.475zM15.071 41.6a4.857 4.857 0 01-3.445-1.424L2.37 30.92c-4.381-4.76 2.134-11.269 6.89-6.89l9.255 9.256c3.067 3.055.834 8.343-3.444 8.315zM5.815 25.853c-1.427-.01-2.17 1.754-1.149 2.771l9.256 9.257c1.587 1.46 3.757-.712 2.297-2.297l-9.256-9.256a1.619 1.619 0 00-1.148-.475zm11.204 1.299a1.624 1.624 0 01-1.143-2.777l9.5-9.419c1.59-1.456 3.755.73 2.286 2.306l-9.5 9.419c-.316.314-.73.47-1.143.47zM40.577 4.265l1.462-1.461C43.5 1.22 41.324-.955 39.742.507L38.281 1.97c-1.025 1.018-.277 2.78 1.148 2.772a1.62 1.62 0 001.148-.476zM3.715 41.127l1.462-1.461c1.462-1.584-.715-3.759-2.297-2.297l-1.46 1.462c-1.025 1.018-.277 2.78 1.148 2.772a1.62 1.62 0 001.148-.476z"/></svg><svg viewBox="0 0 55 55" id="dumbbell-2" xmlns="http://www.w3.org/2000/svg"><path d="M54.528 19.998l-6.183-6.183 3.742-3.742c.63-.63.63-1.65 0-2.279l-4.881-4.881c-.63-.63-1.65-.63-2.28 0l-3.741 3.742L35.002.472c-.63-.63-1.65-.63-2.28 0l-9.762 9.763a1.61 1.61 0 000 2.279l6.183 6.183-10.446 10.446-6.183-6.183a1.612 1.612 0 00-2.279 0L.472 32.723a1.61 1.61 0 000 2.279l6.183 6.183-3.742 3.742a1.61 1.61 0 000 2.279l4.881 4.881c.63.63 1.65.63 2.28 0l3.742-3.742 6.183 6.183a1.61 1.61 0 002.278 0l9.764-9.763c.629-.63.629-1.65 0-2.279l-6.183-6.183 10.445-10.446 6.183 6.183c.63.63 1.65.63 2.279 0l9.763-9.763c.63-.63.63-1.65 0-2.279zM46.066 6.331l2.603 2.603-2.603 2.603-2.602-2.603 2.602-2.603zM8.934 48.669L6.33 46.066l2.603-2.602 2.603 2.602-2.603 2.603zm12.204 2.44L3.89 33.863l2.603-2.603 17.248 17.248-2.603 2.603zm7.484-7.484l-2.602 2.603L8.771 28.981l2.602-2.603 17.248 17.247zm-5.043-9.6l-2.603-2.604 10.446-10.445 2.602 2.603L23.58 34.024zm20.047-5.403L26.378 11.375l2.603-2.603L46.228 26.02l-2.602 2.602zm4.881-4.881L31.26 6.493l2.603-2.603L51.11 21.138l-2.603 2.603z"/></svg><svg viewBox="0 0 52 52" id="e-mail" xmlns="http://www.w3.org/2000/svg"><path d="M50.74 20.62l-7.488-6.239V6.724c0-.832-.674-1.506-1.505-1.506h-9.474L26.676.368a1.505 1.505 0 00-1.971 0l-5.597 4.85H9.634c-.831 0-1.505.674-1.505 1.506v7.657l-7.487 6.24A1.502 1.502 0 00.1 21.776v28.099c0 .831.674 1.505 1.506 1.505h48.17c.83 0 1.505-.674 1.505-1.505v-28.1c0-.446-.199-.87-.542-1.156zM17.216 35.826L3.111 46.798V24.854l14.106 10.972zm2.969 1.506h11.01L45.387 48.37H5.993l14.193-11.038zm13.978-1.506L48.27 24.855v21.943L34.164 35.826zm13.212-14.09l-4.124 3.207V18.3l4.124 3.436zM25.69 3.497l1.985 1.721h-3.971l1.986-1.72zM40.24 8.23v19.056l-9.046 7.036h-11.01l-9.046-7.036V8.229h29.103zM8.13 24.943l-4.123-3.207L8.129 18.3v6.643z"/><path d="M18.966 29.98a11.128 11.128 0 006.526 2.334 1.505 1.505 0 00.041-3.01c-3.539-.098-6.64-2.563-7.543-5.994a8.017 8.017 0 015.328-9.682 7.973 7.973 0 016.179.546 7.968 7.968 0 013.937 4.76c.393 1.489.26 2.88-.444 4.648-.173.436-.707 1.45-1.922 1.45-.134 0-.254-.1-.313-.16a.98.98 0 01-.272-.685l.041-8.363a1.505 1.505 0 00-1.497-1.513h-.008c-.734 0-1.346.527-1.478 1.225a4.761 4.761 0 00-2.23-.547c-1.446 0-2.862.65-3.886 1.783-1.037 1.15-1.609 2.712-1.609 4.402 0 1.681.538 3.262 1.513 4.449 1.011 1.231 2.426 1.938 3.88 1.938 1.114 0 2.137-.397 2.981-1.084.128.185.272.359.43.519.672.675 1.541 1.046 2.448 1.046 2.498 0 4.076-1.729 4.72-3.347.952-2.394 1.121-4.417.549-6.56A10.958 10.958 0 0030.9 11.51a10.96 10.96 0 00-8.495-.751 10.986 10.986 0 00-6.308 5.203 10.973 10.973 0 00-1.018 8.113 10.953 10.953 0 003.887 5.904zm6.244-5.43c-1.15 0-2.383-1.357-2.383-3.376 0-1.987 1.263-3.174 2.484-3.174 1.243 0 2.123 1.213 2.177 2.971l-.002.379c-.071 1.782-1.065 3.2-2.276 3.2z"/></svg><svg viewBox="0 0 42 42" id="formula" xmlns="http://www.w3.org/2000/svg"><path d="M34.795 24.865l-6.43-2.474a7.723 7.723 0 00-1.308-6.144l6.72-6.72c3.396 2.065 7.798-.385 7.798-4.391A5.142 5.142 0 0036.439 0c-4.01 0-6.454 4.405-4.39 7.797l-6.721 6.72a7.726 7.726 0 00-9.572.389l-3.42-2.908c1.706-3.396-.776-7.433-4.592-7.433A5.142 5.142 0 002.61 9.701c0 4.203 4.782 6.595 8.142 4.16l3.42 2.907a7.726 7.726 0 00.347 8.56L10.045 29.8C5.815 26.933 0 29.956 0 35.135a6.447 6.447 0 006.44 6.44c5.174 0 8.205-5.81 5.334-10.045l4.473-4.473a7.722 7.722 0 006.394 1.25l2.78 6.571c-2.63 2.334-.975 6.697 2.54 6.697a3.836 3.836 0 003.832-3.832 3.834 3.834 0 00-4.12-3.819l-2.78-6.573a7.803 7.803 0 002.591-2.678l6.432 2.474a3.834 3.834 0 003.828 3.994 3.836 3.836 0 003.831-3.832c0-3.554-4.483-5.21-6.78-2.444zm1.644-22.42a2.693 2.693 0 012.69 2.69 2.693 2.693 0 01-2.69 2.69 2.693 2.693 0 01-2.69-2.69 2.693 2.693 0 012.69-2.69zM7.744 12.392a2.693 2.693 0 01-2.69-2.69 2.693 2.693 0 012.69-2.69 2.693 2.693 0 012.69 2.69 2.693 2.693 0 01-2.69 2.69zM6.44 39.129a3.999 3.999 0 01-3.994-3.994A3.999 3.999 0 016.44 31.14a3.999 3.999 0 013.994 3.994 3.999 3.999 0 01-3.994 3.994zm21.521-2.771c.764 0 1.386.621 1.386 1.386 0 .764-.622 1.385-1.386 1.385a1.387 1.387 0 01-1.386-1.386c0-.764.622-1.385 1.386-1.385zm-7.173-10.272a5.305 5.305 0 01-5.3-5.298 5.305 5.305 0 015.3-5.3 5.305 5.305 0 015.298 5.3 5.305 5.305 0 01-5.298 5.298zm16.955 2.609a1.387 1.387 0 01-1.385-1.386c0-.764.621-1.386 1.386-1.386a1.387 1.387 0 01-.001 2.772z"/></svg><svg viewBox="0 0 51 51" id="foto" xmlns="http://www.w3.org/2000/svg"><path d="M1.992 11.953c1.1 0 1.992-.892 1.992-1.992V5.977c0-1.099.894-1.993 1.993-1.993H9.96A1.992 1.992 0 109.96 0H5.977A5.983 5.983 0 000 5.977V9.96c0 1.1.892 1.992 1.992 1.992zM41.04 3.984h3.983c1.099 0 1.993.894 1.993 1.993V9.96a1.992 1.992 0 103.984 0V5.977A5.983 5.983 0 0045.023 0H41.04a1.992 1.992 0 100 3.984zm0 47.016h3.983A5.983 5.983 0 0051 45.023V41.04a1.992 1.992 0 10-3.984 0v3.984a1.994 1.994 0 01-1.993 1.993H41.04a1.992 1.992 0 100 3.984zM5.977 51H9.96a1.992 1.992 0 100-3.984H5.977a1.994 1.994 0 01-1.993-1.993V41.04a1.992 1.992 0 10-3.984 0v3.984A5.983 5.983 0 005.977 51zm25.5-41.437A5.983 5.983 0 0025.5 3.585a5.983 5.983 0 00-5.977 5.976A5.983 5.983 0 0025.5 15.54a5.983 5.983 0 005.977-5.976zM25.5 11.555a1.994 1.994 0 01-1.992-1.992c0-1.099.893-1.993 1.992-1.993s1.992.894 1.992 1.992a1.994 1.994 0 01-1.992 1.993z"/><path d="M3.586 29.484c0 1.1.892 1.993 1.992 1.993h13.945v9.96a5.983 5.983 0 005.977 5.977 5.983 5.983 0 005.977-5.977v-3.984a1.992 1.992 0 10-3.985 0v3.984A1.994 1.994 0 0125.5 43.43a1.994 1.994 0 01-1.992-1.992v-9.961h21.914a1.992 1.992 0 100-3.985H35.118a5.95 5.95 0 00.343-1.992v-3.984a5.983 5.983 0 00-5.977-5.977h-7.968a5.983 5.983 0 00-5.977 5.977V25.5c0 .698.122 1.369.343 1.992H5.578c-1.1 0-1.992.892-1.992 1.992zM19.523 25.5v-3.984c0-1.099.894-1.993 1.993-1.993h7.968c1.099 0 1.993.894 1.993 1.993V25.5a1.994 1.994 0 01-1.993 1.992h-7.968a1.994 1.994 0 01-1.993-1.992z"/></svg><svg viewBox="0 0 45 43" id="height" xmlns="http://www.w3.org/2000/svg"><path d="M18.672 8.257h-.505c.621-.835.983-1.827.983-2.89C19.15 2.407 16.36 0 12.93 0 9.5 0 6.709 2.408 6.709 5.367c0 1.063.362 2.055.983 2.89h-.505C3.23 8.257.01 11.035.01 14.449v8.422c0 2.049 1.932 3.716 4.306 3.716.504 0 .987-.075 1.436-.212v12.184c0 2.049 1.932 3.716 4.307 3.716 1.102 0 2.108-.36 2.87-.949.763.59 1.77.949 2.872.949 2.374 0 4.306-1.667 4.306-3.716V26.375c.45.137.933.212 1.436.212 2.375 0 4.307-1.667 4.307-3.716V14.45c0-3.414-3.22-6.192-7.178-6.192zM9.58 5.367c0-1.594 1.503-2.89 3.35-2.89 1.847 0 3.35 1.296 3.35 2.89 0 1.593-1.503 2.89-3.35 2.89-1.847 0-3.35-1.297-3.35-2.89zm13.4 17.503c0 .683-.645 1.239-1.436 1.239-.792 0-1.436-.556-1.436-1.239v-6.605c0-.684-.642-1.239-1.435-1.239s-1.436.555-1.436 1.239v22.293c0 .683-.644 1.239-1.435 1.239-.792 0-1.436-.556-1.436-1.239V28.65c0-.684-.643-1.239-1.435-1.239-.793 0-1.436.555-1.436 1.239v9.908c0 .683-.644 1.239-1.435 1.239-.792 0-1.436-.556-1.436-1.239V16.266c0-.684-.643-1.239-1.435-1.239-.793 0-1.436.555-1.436 1.239v6.605c0 .683-.644 1.239-1.436 1.239-.791 0-1.435-.556-1.435-1.239V14.45c0-2.049 1.932-3.715 4.306-3.715h11.485c2.375 0 4.306 1.666 4.306 3.715v8.422z"/><path d="M43.555 0h-19.14c-.794 0-1.436.555-1.436 1.239 0 .683.642 1.238 1.435 1.238h6.22v38.559c0 .684.643 1.239 1.436 1.239h11.485c.792 0 1.435-.555 1.435-1.239V1.239C44.99.555 44.347 0 43.555 0zm-1.436 39.797h-8.613v-2.56h1.435c.793 0 1.436-.554 1.436-1.238 0-.684-.643-1.238-1.436-1.238h-1.435v-2.477h3.35c.792 0 1.435-.555 1.435-1.239s-.643-1.238-1.435-1.238h-3.35V27.33h1.435c.793 0 1.436-.555 1.436-1.239s-.643-1.238-1.436-1.238h-1.435v-2.477h3.35c.792 0 1.435-.555 1.435-1.239s-.643-1.238-1.435-1.238h-3.35v-2.477h1.435c.793 0 1.436-.555 1.436-1.239s-.643-1.238-1.436-1.238h-1.435v-2.477h3.35c.792 0 1.435-.555 1.435-1.239s-.643-1.238-1.435-1.238h-3.35V7.514h1.435c.793 0 1.436-.555 1.436-1.239s-.643-1.238-1.436-1.238h-1.435v-2.56h8.613v37.32z"/></svg><svg viewBox="0 0 48 48" id="instagram" xmlns="http://www.w3.org/2000/svg"><path d="M34.753 0H13.246C5.942 0 0 5.942 0 13.246v21.508C0 42.058 5.942 48 13.246 48h21.507C42.058 48 48 42.057 48 34.754V13.246C48 5.942 42.058 0 34.753 0zm8.988 34.754c0 4.955-4.032 8.987-8.987 8.987H13.246c-4.956 0-8.987-4.032-8.987-8.987V13.246c0-4.955 4.031-8.987 8.987-8.987h21.507c4.956 0 8.988 4.032 8.988 8.987v21.508z"/><path d="M24 11.632c-6.82 0-12.368 5.548-12.368 12.368S17.18 36.368 24 36.368 36.368 30.82 36.368 24 30.82 11.632 24 11.632zm0 20.477c-4.471 0-8.11-3.638-8.11-8.109 0-4.472 3.638-8.11 8.11-8.11 4.472 0 8.11 3.638 8.11 8.11 0 4.471-3.639 8.11-8.11 8.11zM36.887 8.021c-.82 0-1.627.332-2.206.914a3.138 3.138 0 00-.917 2.21c0 .82.335 1.626.917 2.208.579.58 1.385.914 2.206.914.823 0 1.627-.335 2.209-.914a3.147 3.147 0 00.914-2.209c0-.823-.332-1.63-.914-2.209a3.137 3.137 0 00-2.21-.914z"/></svg><svg viewBox="0 0 45 55" id="knee" xmlns="http://www.w3.org/2000/svg"><path d="M39.09 14.96a1.075 1.075 0 00-1.518 1.52 12.798 12.798 0 013.775 9.113c0 3.442-1.34 6.678-3.775 9.111a1.074 1.074 0 001.518 1.52 14.933 14.933 0 004.405-10.631c0-4.017-1.564-7.793-4.404-10.632z"/><path d="M35.404 18.645a1.075 1.075 0 00-1.52 1.52c2.993 2.992 2.993 7.862 0 10.855a1.074 1.074 0 001.52 1.52c3.83-3.831 3.83-10.064 0-13.895zm-5.614-1.118L23.778.713A1.074 1.074 0 0022.766 0H2.8c-.565 0-1.034.439-1.072 1.003-.62 9.355-.165 14.763 4.177 22.08.199.335.959 1.691 1.163 2.018 2.28 4.13 1.947 5.11.549 9.21a104.61 104.61 0 00-1.278 3.935c-1.055 3.513-1.45 6.91-2.17 13.08L3.88 53.8A1.075 1.075 0 004.947 55h16.46c.492 0 .921-.334 1.042-.81 0 0 5.973-23.491 6.197-24.295 1.078-3.867 2.193-7.866 1.18-12.248a1.265 1.265 0 00-.035-.12zM8.35 23.01a85.768 85.768 0 00-.598-1.023c-1.362-2.295-2.313-4.371-2.955-6.456 3.006.059 4.972 1.052 5.469 2.809.44 1.559-.38 3.456-1.915 4.67zm12.222 29.842H6.155l.149-1.278c.33-2.84.592-5.08.88-7.003H22.67l-2.098 8.28zm2.643-10.43H7.542c.238-1.26.51-2.41.855-3.558.462-1.54.882-2.773 1.253-3.86 1.486-4.357 1.885-5.921-.256-10.091 2.405-1.727 3.65-4.643 2.94-7.158-.392-1.384-1.957-4.475-8.09-4.373a26.934 26.934 0 01-.46-3.186H9.32a1.074 1.074 0 000-2.148H3.666c-.048-1.786.013-3.72.143-5.9h18.2l2.11 5.9h-5.153a1.074 1.074 0 000 2.148h5.921l2.852 7.973h-4.483c-4.694 0-8.513 3.82-8.513 8.516 0 4.695 3.819 8.514 8.513 8.514h1.79l-1.831 7.224zm3.362-13.104c-.227.816-.987 3.732-.987 3.732h-2.334a6.372 6.372 0 01-6.364-6.365 6.373 6.373 0 016.364-6.367h4.794c.19 3.037-.623 5.95-1.473 9z"/><path d="M15.218 9.122a1.076 1.076 0 00-2.15 0c0 .593.481 1.074 1.075 1.074h.003c.593 0 1.072-.48 1.072-1.074z"/></svg><svg viewBox="0 0 253 49" id="logo" xmlns="http://www.w3.org/2000/svg"><path d="M64.657 41.041V9.105h9.741l2.677 19.481 2.677-19.481h9.815V41.04H83.73V18.028L80.05 41.04h-5.726L70.42 18.028V41.04h-5.763zm27.442 0V9.105h6.171V41.04H92.1zm8.72 0V9.105h6.321v12.79l2.974-12.79h6.432l-3.569 14.61 4.313 17.326h-6.618l-3.495-15.466V41.04h-6.358zm17.537 0V9.105h12.79v6.171h-6.284v6.21h6.023v6.022h-6.023v7.324h6.692v6.21h-13.198zm15.322-31.936h8.662c2.33 0 4.016.57 5.057 1.71 1.066 1.14 1.598 2.999 1.598 5.577v1.412c0 3.05-1.09 4.87-3.271 5.466 1.338.347 2.28 1.152 2.825 2.416.546 1.264.818 2.938.818 5.02 0 3.395-.508 5.973-1.524 7.733-1.016 1.735-2.85 2.602-5.503 2.602h-8.662V9.105zm7.547 12.008c.545 0 .917-.198 1.115-.595.199-.42.298-1.003.298-1.747v-3.197c0-1.041-.459-1.562-1.376-1.562h-1.338v7.101h1.301zm-.669 14.314c1.66 0 2.491-.793 2.491-2.38V29.07c0-.967-.149-1.698-.446-2.194-.273-.496-.769-.744-1.487-.744h-1.19v9.258l.632.037zm18.534 5.912c-2.578 0-4.536-.781-5.874-2.343-1.339-1.586-2.008-3.804-2.008-6.655V17.135c0-2.751.669-4.82 2.008-6.209 1.338-1.412 3.296-2.119 5.874-2.119s4.536.707 5.874 2.12c1.339 1.387 2.008 3.457 2.008 6.208v15.206c0 2.876-.669 5.094-2.008 6.655-1.338 1.562-3.296 2.343-5.874 2.343zm0-5.875c.57 0 .954-.247 1.153-.743.198-.496.297-1.19.297-2.082V17.024c0-.694-.099-1.252-.297-1.673-.174-.447-.546-.67-1.116-.67-1.066 0-1.598.806-1.598 2.417v15.578c0 .917.111 1.611.334 2.082.223.47.632.706 1.227.706zm10.46-26.359h9.815c1.561 0 2.763.359 3.606 1.078.868.694 1.45 1.685 1.748 2.974.297 1.264.446 2.888.446 4.87 0 1.81-.236 3.223-.707 4.239s-1.289 1.723-2.454 2.12c.967.197 1.661.68 2.082 1.449.447.768.67 1.81.67 3.123l-.075 12.083h-6.246V28.55c0-.892-.173-1.462-.52-1.71-.347-.248-.979-.372-1.896-.372v14.574h-6.469V9.105zm8.03 11.822c.892 0 1.339-.966 1.339-2.9 0-.842-.038-1.474-.112-1.896-.074-.421-.211-.706-.409-.855-.198-.173-.483-.26-.855-.26h-1.487v5.911h1.524zm9.688 20.114V9.105h12.789v6.171h-6.283v6.21h6.023v6.022h-6.023v7.324h6.692v6.21h-13.198zm19.188 0V30.52l-5.094-21.415h6.321l1.784 10.819 1.785-10.82h6.32l-5.093 21.416v10.52h-6.023zm12.726 0V9.105h6.32v12.79l2.975-12.79h6.432l-3.57 14.61 4.313 17.326h-6.618l-3.495-15.466V41.04h-6.357zm25.158.298c-2.578 0-4.536-.781-5.874-2.343-1.339-1.586-2.008-3.804-2.008-6.655V17.135c0-2.751.669-4.82 2.008-6.209 1.338-1.412 3.296-2.119 5.874-2.119s4.536.707 5.874 2.12c1.339 1.387 2.008 3.457 2.008 6.208v15.206c0 2.876-.669 5.094-2.008 6.655-1.338 1.562-3.296 2.343-5.874 2.343zm0-5.875c.57 0 .954-.247 1.153-.743.198-.496.297-1.19.297-2.082V17.024c0-.694-.099-1.252-.297-1.673-.174-.447-.546-.67-1.116-.67-1.066 0-1.598.806-1.598 2.417v15.578c0 .917.111 1.611.334 2.082.223.47.632.706 1.227.706zM.222 48.807v-48h14.644l4.024 29.28L22.914.808H37.67v48h-8.776v-34.59l-5.533 34.59h-8.607l-5.869-34.59v34.59H.222z"/><path d="M28.635.807h13.023c3.503 0 6.036.857 7.601 2.57 1.603 1.714 2.404 4.508 2.404 8.382v2.124c0 4.582-1.64 7.32-4.919 8.214 2.012.521 3.428 1.732 4.248 3.632.82 1.9 1.23 4.415 1.23 7.544 0 5.103-.764 8.978-2.292 11.623-1.528 2.607-4.285 3.911-8.272 3.911H28.635v-48zm11.346 18.049c.82 0 1.379-.298 1.677-.894.298-.633.447-1.509.447-2.626V10.53c0-1.565-.69-2.347-2.068-2.347h-2.012v10.673h1.956zm-1.006 21.513c2.497 0 3.745-1.192 3.745-3.576v-5.979c0-1.453-.224-2.552-.67-3.297-.41-.745-1.156-1.117-2.236-1.117h-1.789v13.913l.95.056z"/></svg><svg viewBox="0 0 1920 361" id="mikeboreyko" xmlns="http://www.w3.org/2000/svg"><mask id="qa" maskUnits="userSpaceOnUse" x="-114" y="0" width="2069" height="361"><path d="M-114 0h2069v361H-114z"/><path d="M-113 356.718V4.282H-5.654l29.5 214.99 29.5-214.99H161.51v352.436H97.186V102.751L56.623 356.718H-6.473l-43.02-253.967v253.967H-113zm302.411 0V4.282h68.013v352.436h-68.013zm96.104 0V4.282h69.652v141.139L387.945 4.282h70.881l-39.333 161.243 47.527 191.193h-72.93l-38.513-170.679v170.679h-70.062zm193.256 0V4.282h140.943V72.39h-69.242v68.517h66.374v66.467h-66.374V288.2h73.749v68.518h-145.45zM647.62 4.282h95.464c25.676 0 44.25 6.291 55.722 18.873 11.745 12.582 17.618 33.097 17.618 61.543v15.591c0 33.644-12.019 53.748-36.056 60.312 14.75 3.829 25.13 12.719 31.139 26.669 6.009 13.949 9.014 32.412 9.014 55.388 0 37.473-5.6 65.92-16.799 85.34-11.199 19.146-31.411 28.72-60.638 28.72H647.62V4.282zm83.172 132.523c6.01 0 10.107-2.189 12.292-6.565 2.185-4.65 3.278-11.078 3.278-19.283V75.672c0-11.488-5.053-17.232-15.16-17.232h-14.75v78.365h14.34zm-7.374 157.96c18.3 0 27.451-8.753 27.451-26.259v-43.9c0-10.668-1.639-18.737-4.917-24.207-3.004-5.471-8.467-8.206-16.389-8.206h-13.111v102.161l6.966.411zM927.669 360c-28.408 0-49.986-8.616-64.736-25.848-14.75-17.506-22.125-41.986-22.125-73.441V92.904c0-30.361 7.375-53.2 22.125-68.518C877.683 8.796 899.261 1 927.669 1c28.407 0 49.985 7.795 64.735 23.386 14.746 15.318 22.126 38.157 22.126 68.518v167.807c0 31.729-7.38 56.209-22.126 73.441C977.654 351.384 956.076 360 927.669 360zm0-64.825c6.282 0 10.516-2.735 12.701-8.206 2.185-5.47 3.278-13.129 3.278-22.976V91.673c0-7.659-1.093-13.813-3.278-18.463-1.912-4.923-6.009-7.385-12.292-7.385-11.745 0-17.618 8.89-17.618 26.669v171.909c0 10.121 1.23 17.779 3.688 22.976 2.458 5.197 6.965 7.796 13.521 7.796zM1042.93 4.282h108.17c17.21 0 30.46 3.966 39.74 11.899 9.56 7.658 15.98 18.6 19.26 32.822 3.28 13.95 4.92 31.866 4.92 53.748 0 19.967-2.6 35.558-7.79 46.772-5.19 11.215-14.2 19.01-27.04 23.387 10.65 2.188 18.3 7.522 22.94 16.001 4.92 8.479 7.38 19.967 7.38 34.464l-.82 133.343h-68.83V218.862c0-9.847-1.92-16.138-5.74-18.873-3.82-2.736-10.79-4.103-20.9-4.103v160.832h-71.29V4.282zm88.5 130.471c9.84 0 14.75-10.667 14.75-32.002 0-9.3-.41-16.275-1.23-20.925-.82-4.65-2.32-7.795-4.5-9.436-2.19-1.915-5.33-2.872-9.43-2.872h-16.39v65.235h16.8zm106.76 221.965V4.282h140.94V72.39h-69.24v68.517h66.38v66.467h-66.38V288.2h73.75v68.518h-145.45zm211.46 0V240.607L1393.52 4.282h69.65l19.67 119.393L1502.5 4.282h69.66l-56.14 236.325v116.111h-66.37zm140.24 0V4.282h69.65v141.139l32.78-141.139h70.88l-39.33 161.243 47.53 191.193h-72.93l-38.52-170.679v170.679h-70.06zM1867.14 360c-28.41 0-49.99-8.616-64.74-25.848-14.75-17.506-22.12-41.986-22.12-73.441V92.904c0-30.361 7.37-53.2 22.12-68.518C1817.15 8.796 1838.73 1 1867.14 1c28.41 0 49.99 7.795 64.74 23.386 14.75 15.318 22.12 38.157 22.12 68.518v167.807c0 31.729-7.37 56.209-22.12 73.441S1895.55 360 1867.14 360zm0-64.825c6.28 0 10.52-2.735 12.7-8.206 2.19-5.47 3.28-13.129 3.28-22.976V91.673c0-7.659-1.09-13.813-3.28-18.463-1.91-4.923-6.01-7.385-12.29-7.385-11.75 0-17.62 8.89-17.62 26.669v171.909c0 10.121 1.23 17.779 3.69 22.976 2.46 5.197 6.96 7.796 13.52 7.796z"/></mask><path d="M-113 356.718V4.282H-5.654l29.5 214.99 29.5-214.99H161.51v352.436H97.186V102.751L56.623 356.718H-6.473l-43.02-253.967v253.967H-113zm302.411 0V4.282h68.013v352.436h-68.013zm96.104 0V4.282h69.652v141.139L387.945 4.282h70.881l-39.333 161.243 47.527 191.193h-72.93l-38.513-170.679v170.679h-70.062zm193.256 0V4.282h140.943V72.39h-69.242v68.517h66.374v66.467h-66.374V288.2h73.749v68.518h-145.45zM647.62 4.282h95.464c25.676 0 44.25 6.291 55.722 18.873 11.745 12.582 17.618 33.097 17.618 61.543v15.591c0 33.644-12.019 53.748-36.056 60.312 14.75 3.829 25.13 12.719 31.139 26.669 6.009 13.949 9.014 32.412 9.014 55.388 0 37.473-5.6 65.92-16.799 85.34-11.199 19.146-31.411 28.72-60.638 28.72H647.62V4.282zm83.172 132.523c6.01 0 10.107-2.189 12.292-6.565 2.185-4.65 3.278-11.078 3.278-19.283V75.672c0-11.488-5.053-17.232-15.16-17.232h-14.75v78.365h14.34zm-7.374 157.96c18.3 0 27.451-8.753 27.451-26.259v-43.9c0-10.668-1.639-18.737-4.917-24.207-3.004-5.471-8.467-8.206-16.389-8.206h-13.111v102.161l6.966.411zM927.669 360c-28.408 0-49.986-8.616-64.736-25.848-14.75-17.506-22.125-41.986-22.125-73.441V92.904c0-30.361 7.375-53.2 22.125-68.518C877.683 8.796 899.261 1 927.669 1c28.407 0 49.985 7.795 64.735 23.386 14.746 15.318 22.126 38.157 22.126 68.518v167.807c0 31.729-7.38 56.209-22.126 73.441C977.654 351.384 956.076 360 927.669 360zm0-64.825c6.282 0 10.516-2.735 12.701-8.206 2.185-5.47 3.278-13.129 3.278-22.976V91.673c0-7.659-1.093-13.813-3.278-18.463-1.912-4.923-6.009-7.385-12.292-7.385-11.745 0-17.618 8.89-17.618 26.669v171.909c0 10.121 1.23 17.779 3.688 22.976 2.458 5.197 6.965 7.796 13.521 7.796zM1042.93 4.282h108.17c17.21 0 30.46 3.966 39.74 11.899 9.56 7.658 15.98 18.6 19.26 32.822 3.28 13.95 4.92 31.866 4.92 53.748 0 19.967-2.6 35.558-7.79 46.772-5.19 11.215-14.2 19.01-27.04 23.387 10.65 2.188 18.3 7.522 22.94 16.001 4.92 8.479 7.38 19.967 7.38 34.464l-.82 133.343h-68.83V218.862c0-9.847-1.92-16.138-5.74-18.873-3.82-2.736-10.79-4.103-20.9-4.103v160.832h-71.29V4.282zm88.5 130.471c9.84 0 14.75-10.667 14.75-32.002 0-9.3-.41-16.275-1.23-20.925-.82-4.65-2.32-7.795-4.5-9.436-2.19-1.915-5.33-2.872-9.43-2.872h-16.39v65.235h16.8zm106.76 221.965V4.282h140.94V72.39h-69.24v68.517h66.38v66.467h-66.38V288.2h73.75v68.518h-145.45zm211.46 0V240.607L1393.52 4.282h69.65l19.67 119.393L1502.5 4.282h69.66l-56.14 236.325v116.111h-66.37zm140.24 0V4.282h69.65v141.139l32.78-141.139h70.88l-39.33 161.243 47.53 191.193h-72.93l-38.52-170.679v170.679h-70.06zM1867.14 360c-28.41 0-49.99-8.616-64.74-25.848-14.75-17.506-22.12-41.986-22.12-73.441V92.904c0-30.361 7.37-53.2 22.12-68.518C1817.15 8.796 1838.73 1 1867.14 1c28.41 0 49.99 7.795 64.74 23.386 14.75 15.318 22.12 38.157 22.12 68.518v167.807c0 31.729-7.37 56.209-22.12 73.441S1895.55 360 1867.14 360zm0-64.825c6.28 0 10.52-2.735 12.7-8.206 2.19-5.47 3.28-13.129 3.28-22.976V91.673c0-7.659-1.09-13.813-3.28-18.463-1.91-4.923-6.01-7.385-12.29-7.385-11.75 0-17.62 8.89-17.62 26.669v171.909c0 10.121 1.23 17.779 3.69 22.976 2.46 5.197 6.96 7.796 13.52 7.796z" mask="url(#qa)"/></svg><svg viewBox="0 0 49 49" id="person" xmlns="http://www.w3.org/2000/svg"><path d="M24.222 11.682c-5.17 0-9.375 4.206-9.375 9.375 0 5.17 4.205 9.375 9.375 9.375s9.375-4.205 9.375-9.375-4.206-9.375-9.375-9.375zm0 15a5.631 5.631 0 01-5.625-5.625 5.631 5.631 0 015.625-5.625 5.631 5.631 0 015.625 5.625 5.631 5.631 0 01-5.625 5.625zm0-25.875c-13.458 0-24 10.542-24 24 0 13.505 10.59 24 24 24 13.427 0 24-10.514 24-24 0-13.458-10.542-24-24-24zm0 44.25c-4.406 0-8.44-1.34-11.73-3.642 2.207-4.376 6.758-7.233 11.73-7.233 4.971 0 9.522 2.857 11.73 7.233-3.29 2.302-7.325 3.642-11.73 3.642zm14.647-6.138a16.863 16.863 0 00-4.931-5.41 16.769 16.769 0 00-9.716-3.077 16.77 16.77 0 00-9.716 3.076 16.862 16.862 0 00-4.932 5.411C6.09 35.3 3.972 30.346 3.972 24.807c0-11.355 8.895-20.25 20.25-20.25s20.25 8.895 20.25 20.25c0 5.539-2.117 10.491-5.603 14.112z"/></svg><svg viewBox="0 0 43 42" id="plane" xmlns="http://www.w3.org/2000/svg"><path d="M18.131 41.607H10.25c-5.376 0-9.75-4.374-9.75-9.75v-22.1c0-5.376 4.374-9.75 9.75-9.75H25.2c5.376 0 9.75 4.374 9.75 9.75v5.282c-.086 2.156-3.165 2.154-3.25 0V9.757c0-3.584-2.916-6.5-6.5-6.5H10.25a6.507 6.507 0 00-6.5 6.5v22.1c0 3.584 2.916 6.5 6.5 6.5h7.881c2.156.086 2.155 3.165 0 3.25zM26.5 7.97c-.086-2.156-3.165-2.155-3.25 0a2.44 2.44 0 01-2.438 2.437h-6.175A2.44 2.44 0 0112.2 7.97a1.625 1.625 0 10-3.25 0 5.694 5.694 0 005.688 5.687h6.175A5.694 5.694 0 0026.5 7.97zm15.6 22.669c0-6.049-4.92-10.97-10.969-10.97-14.552.603-14.546 21.338 0 21.938 6.048 0 10.969-4.92 10.969-10.968zm-3.25 0c0 4.256-3.463 7.718-7.719 7.718-10.24-.424-10.236-15.015 0-15.437 4.256 0 7.719 3.462 7.719 7.718zm-4.957 1.625H31.13a1.625 1.625 0 01-1.625-1.626v-3.33c.086-2.157 3.165-2.155 3.25 0v1.706h1.137c2.156.085 2.154 3.165 0 3.25zm-12.024-12.92c0-.897-.728-1.624-1.625-1.624h-9.181c-2.157.086-2.155 3.165 0 3.25h9.18c.898 0 1.626-.728 1.626-1.625zm-4.063 6.5c0-.897-.727-1.624-1.625-1.624h-5.119c-2.155.086-2.154 3.165 0 3.25h5.12c.897 0 1.624-.728 1.624-1.625zm-.812 6.5c0-.897-.728-1.624-1.625-1.624h-4.306c-2.157.086-2.155 3.165 0 3.25h4.306c.897 0 1.625-.728 1.625-1.625z"/></svg><svg viewBox="0 0 14 13" id="plus" xmlns="http://www.w3.org/2000/svg"><path d="M.222 6h13v1h-13z"/><path d="M7.222 0v13h-1V0z"/></svg><svg viewBox="0 0 46 54" id="runer" xmlns="http://www.w3.org/2000/svg"><path d="M43.98 19.055l-9.998-3.085c-.705-5.432-5.36-9.642-10.982-9.642-5.621 0-10.277 4.21-10.982 9.642L2.02 19.055a1.582 1.582 0 00-1.108 1.668l3.164 31.851c.08.81.761 1.426 1.574 1.426h34.7c.813 0 1.493-.617 1.574-1.426l3.164-31.85a1.582 1.582 0 00-1.108-1.669zM23 9.492c4.362 0 7.91 3.549 7.91 7.91 0 4.362-3.548 7.91-7.91 7.91-4.361 0-7.91-3.548-7.91-7.91 0-4.361 3.548-7.91 7.91-7.91zm15.917 41.344H7.083L4.188 21.697l7.895-2.435c.886 5.224 5.444 9.215 10.917 9.215s10.03-3.991 10.917-9.215l7.895 2.435-2.895 29.139z"/><path d="M6.563 13.202a1.58 1.58 0 002.907-.235A14.219 14.219 0 0123 3.164a14.22 14.22 0 0113.53 9.803 1.583 1.583 0 003.006-.988 17.358 17.358 0 00-6.234-8.594A17.25 17.25 0 0023 0a17.25 17.25 0 00-10.302 3.385 17.412 17.412 0 00-4.841 5.442l-.423-.813a1.582 1.582 0 10-2.808 1.458l1.937 3.73z"/><path d="M21.881 18.521c.31.309.714.463 1.119.463s.81-.154 1.119-.463a1.582 1.582 0 000-2.237l-2.23-2.23a1.582 1.582 0 00-2.237 2.238l2.23 2.229zm.899 14.175c-.873 0-1.582.709-1.582 1.582v9.702a1.582 1.582 0 003.165 0v-9.702c0-.873-.709-1.582-1.582-1.582z"/></svg><svg viewBox="0 0 46 54" id="weight" xmlns="http://www.w3.org/2000/svg"><path d="M43.98 19.055l-9.998-3.085c-.705-5.432-5.36-9.642-10.982-9.642-5.621 0-10.277 4.21-10.982 9.642L2.02 19.055a1.582 1.582 0 00-1.108 1.668l3.164 31.851c.08.81.761 1.426 1.574 1.426h34.7c.813 0 1.493-.617 1.574-1.426l3.164-31.85a1.582 1.582 0 00-1.108-1.669zM23 9.492c4.362 0 7.91 3.549 7.91 7.91 0 4.362-3.548 7.91-7.91 7.91-4.361 0-7.91-3.548-7.91-7.91 0-4.361 3.548-7.91 7.91-7.91zm15.917 41.344H7.083L4.188 21.697l7.895-2.435c.886 5.224 5.444 9.215 10.917 9.215s10.03-3.991 10.917-9.215l7.895 2.435-2.895 29.139z"/><path d="M6.563 13.202a1.58 1.58 0 002.907-.235A14.219 14.219 0 0123 3.164a14.22 14.22 0 0113.53 9.803 1.583 1.583 0 003.006-.988 17.358 17.358 0 00-6.234-8.594A17.25 17.25 0 0023 0a17.25 17.25 0 00-10.302 3.385 17.412 17.412 0 00-4.841 5.442l-.423-.813a1.582 1.582 0 10-2.808 1.458l1.937 3.73z"/><path d="M21.881 18.521c.31.309.714.463 1.119.463s.81-.154 1.119-.463a1.582 1.582 0 000-2.237l-2.23-2.23a1.582 1.582 0 00-2.237 2.238l2.23 2.229zm.899 14.175c-.873 0-1.582.709-1.582 1.582v9.702a1.582 1.582 0 003.165 0v-9.702c0-.873-.709-1.582-1.582-1.582z"/></svg></svg>