<svg width="56" height="50" viewBox="0 0 56 50" fill="none" xmlns="http://www.w3.org/2000/svg">
<path d="M56 18.377C56 10.2352 49.3761 3.61139 41.2344 3.61139C33.0926 3.61139 26.4688 10.2352 26.4688 18.377C26.4688 22.3835 28.0735 26.0218 30.673 28.6846C28.231 30.4054 25.2352 31.5559 22.1744 31.9365C22.8558 30.0897 23.1112 28.1116 22.893 26.1259C22.6077 23.5302 21.5467 21.2028 19.9558 19.5662C22.269 17.0314 23.3571 13.5461 22.8379 10.0596C22.125 5.27258 18.3067 1.34634 13.5524 0.511702C10.1531 -0.0851577 6.70895 0.827796 4.10298 3.01617C1.49548 5.20586 0 8.41306 0 11.8155V13.773C0 26.947 5.60098 40.0525 17.619 49.667C22.8809 48.6142 27.5357 46.9758 32.4004 43.4577C36.2336 40.6855 39.4813 37.1287 41.8412 33.1292C49.7026 32.8096 56 26.3155 56 18.377ZM18.48 46.145C8.81103 38.1239 3.28125 26.3693 3.28125 13.773V11.8155C3.28125 9.38508 4.34984 7.09378 6.21305 5.52906C8.10206 3.94269 10.5069 3.30842 12.9851 3.74362C16.314 4.32801 19.0928 7.18762 19.5925 10.5431C20.0447 13.5802 18.8729 16.4945 16.4577 18.3388L14.5539 19.7927L16.5974 21.0424C18.2082 22.0273 19.3706 24.1126 19.6314 26.4844C19.9602 29.4756 18.8313 32.4628 16.5344 34.6801L18.8134 37.0409C19.3482 36.5246 19.8338 35.975 20.2705 35.399L21.6412 35.2892C25.9257 34.946 30.0279 33.3686 33.2991 30.8241C34.7651 31.762 36.4071 32.4475 38.1632 32.8205C33.7002 39.5249 26.5232 44.4133 18.48 46.145ZM41.2344 29.8614C34.9019 29.8614 29.75 24.7095 29.75 18.377C29.75 12.0445 34.9019 6.89264 41.2344 6.89264C47.5669 6.89264 52.7188 12.0445 52.7188 18.377C52.7188 24.7095 47.5669 29.8614 41.2344 29.8614Z" fill="#247894"/>
<path d="M45.8749 11.4164L43.3552 13.9362C42.7126 13.6281 41.9934 13.4551 41.2344 13.4551C40.4755 13.4551 39.7562 13.6281 39.1136 13.9362L36.594 11.4164L34.2738 13.7366L36.7935 16.2563C36.4854 16.8989 36.3124 17.6182 36.3124 18.377C36.3124 19.1358 36.4854 19.8551 36.7935 20.4977L34.2738 23.0175L36.594 25.3376L39.1136 22.8178C39.7562 23.126 40.4755 23.2989 41.2344 23.2989C41.9934 23.2989 42.7126 23.126 43.3552 22.8178L45.8749 25.3376L48.1951 23.0175L45.6754 20.4977C45.9835 19.8551 46.1564 19.1358 46.1564 18.377C46.1564 17.6182 45.9835 16.8989 45.6754 16.2563L48.1951 13.7366L45.8749 11.4164ZM41.2344 20.0176C40.3298 20.0176 39.5938 19.2816 39.5938 18.377C39.5938 17.4724 40.3298 16.7364 41.2344 16.7364C42.1391 16.7364 42.8751 17.4724 42.8751 18.377C42.8751 19.2816 42.1391 20.0176 41.2344 20.0176Z" fill="#247894"/>
<style>
@media(preferences-color-scheme: dark){
  svg[path]{
    fill: #fff;
}
}
</style>
</svg>
